<svg xmlns="http://www.w3.org/2000/svg" width="24.25" height="24.25" viewBox="0 0 24.25 24.25">
  <g id="Icon_ionic-ios-checkmark-circle-outline" data-name="Icon ionic-ios-checkmark-circle-outline" transform="translate(0.5 0.5)">
    <path id="Path_4" data-name="Path 4" d="M20.117,13.3l-.8-1.026a.157.157,0,0,0-.127-.068h0a.151.151,0,0,0-.127.068l-5.515,6.964-2.007-2.516a.152.152,0,0,0-.253,0l-.8,1.009a.268.268,0,0,0,0,.323l2.531,3.173a.748.748,0,0,0,.529.323.791.791,0,0,0,.524-.312h0l6.044-7.616A.29.29,0,0,0,20.117,13.3Z" transform="translate(-3.376 -5.126)" fill="#22d596" stroke="#22d596" stroke-width="1"/>
    <path id="Path_5" data-name="Path 5" d="M15,4.94A10.056,10.056,0,1,1,7.885,7.885,9.994,9.994,0,0,1,15,4.94m0-1.565A11.625,11.625,0,1,0,26.625,15,11.623,11.623,0,0,0,15,3.375Z" transform="translate(-3.375 -3.375)" fill="#22d596" stroke="#22d596" stroke-width="1"/>
  </g>
</svg>
