<svg xmlns="http://www.w3.org/2000/svg" width="112.086" height="162.658" viewBox="0 0 112.086 162.658">
  <defs>
    <style>
      .cls-1 {
        fill: #fff;
      }

      .cls-1, .cls-2 {
        fill-rule: evenodd;
      }
    </style>
  </defs>
  <g id="Introduction" transform="translate(-38.451 -48.399)">
    <g id="variations" transform="translate(38.451 48.399)">
      <g id="images">
        <g id="a-person_bust" data-name="a-person/bust" transform="translate(0)">
          <g id="body_Paper" data-name="body/Paper" transform="translate(0 55.016)">
            <path id="_-Background" data-name="ðŸŽ¨-Background" class="cls-1" d="M105.523,26.482c-1.265-4.906-2.428-6.987-4.675-8.692-2.1-1.6-5.169-2.935-9.645-3.913-4.662-.815-4.794-3.239-5.963-7.134a1.689,1.689,0,0,0-2.76-.639,3.351,3.351,0,0,0-.321-.3c.1-.558-.714-2.159-.687-2.693.284-5.576-1.54-8.376-6.091-9.417A51.009,51.009,0,0,0,66.7-6.4c-4.219,1.167-8.372,4.871-7.737,9.333A8.257,8.257,0,0,1,54.3,6.275q-6.821.866-13.642,1.53A37.746,37.746,0,0,0,17.705,20.789a1.79,1.79,0,0,0-.214,2.173c-.364,1.559-2.412,5.339-.8,6.408-2.65,6.338-8.746,18.59-8.759,22.09C7.885,66.164,9.473,85.3,23.98,93.44a4.136,4.136,0,0,1,.915,2.053,5.52,5.52,0,0,0,5.489,4.434c12.489.278,24.586-1.246,37.075-1.32a151,151,0,0,1,16.916,1.338,35.026,35.026,0,0,0,14.206-1.338,1.861,1.861,0,0,0,1.964.79c4.76-.946,8.609-3.88,11.962-7.086,1.025-1.864,5.025-7.175,3.435-9.024,1.442-6.1,1.367-12.645-1.2-18.45.363-1.064-.3-2.233,0-3.332.216-.8.77-1.124,1.049-1.911a5.854,5.854,0,0,0-.476-3.725c-.181-.564.333-1.17.476-1.745.678-2.712-.874-2.473-1.992-4.286.017-.006.308-1.3.306-1.293a5.228,5.228,0,0,0-.632-2.879,1.359,1.359,0,0,0-1.333-.788,49.069,49.069,0,0,1,1.965-5.146,53.881,53.881,0,0,1,4.827-8.949,1.732,1.732,0,0,0-1.5-2.58A75.8,75.8,0,0,1,105.523,26.482Z" transform="translate(-7.563 6.552)"/>
            <path id="_-Ink" data-name="ðŸ–-Ink" class="cls-2" d="M93.633,52.637a17.678,17.678,0,0,0-5.074-1.113c.936-.164,1.875-.322,2.821-.4a2.02,2.02,0,0,1,1.769.45,4.786,4.786,0,0,1,.7,1.158C93.781,52.7,93.707,52.666,93.633,52.637Zm17.241-5.891a20.245,20.245,0,0,0-7.644,1.893,3.476,3.476,0,0,0-2.114,2.238,4.934,4.934,0,0,0-.029,1.714c.052.431.065.981.44,1.273a.809.809,0,0,0,.2.115,17.817,17.817,0,0,0-2.457,1.363,4.514,4.514,0,0,0-1.69,1.919c-.026-.089-.052-.171-.078-.25a6.987,6.987,0,0,0-2.652-3.742.572.572,0,0,0,.313-.684,3.16,3.16,0,0,0-3.073-2.542,12.669,12.669,0,0,0-4.784,1.418c-.529-.012-1.058,0-1.58.019a.068.068,0,0,0,0,.135c.424.054.847.113,1.271.183,1.007.161,2.011.366,2.993.62a18.829,18.829,0,0,1,3.5,1.144,6.26,6.26,0,0,1,3.186,6.1c-.045.386-.194,1.553-.73,1.433-.453-.1-.632-1.047-.791-1.4a3.964,3.964,0,0,0-2.1-1.947c-1.075-.483-2.226-.81-3.34-1.19q-.947-.324-1.895-.648a3.548,3.548,0,0,0-1.952-.373.53.53,0,0,0-.231.875,2.839,2.839,0,0,0,1.4.74l2.026.705c1.043.363,2.136.669,3.153,1.113l-.032.073a.141.141,0,0,0-.164.161,7.657,7.657,0,0,1,.129,2.966c-.186.746-.84,1.572-1.69,1.353A.453.453,0,0,0,90.547,63c-.337-.72-4.748-3.562-5.141-2.507-.013.038.027.065.059.06.335-.07.9.5,1.165.684.387.261.781.517,1.164.785.419.293.829.6,1.228.919a3.239,3.239,0,0,0,.91.636.761.761,0,0,0-.4.47,1.9,1.9,0,0,1-1.02,1.273,5.711,5.711,0,0,1-1.814.157A3.66,3.66,0,0,0,84.567,66.5c-1.252,1.17-1.881,3.231-3.632,3.784a7.514,7.514,0,0,1-3.266-.028,12.225,12.225,0,0,0-3.526-.125,11.9,11.9,0,0,0-3.26,1.044,15.15,15.15,0,0,0-2.922,1.636c-.178-.55-.358-1.095-.495-1.656a19.734,19.734,0,0,1-.538-4.046,33.673,33.673,0,0,1,.145-3.9c.055-.646.142-1.289.2-1.935.014-.163.044-.337.065-.511a44.609,44.609,0,0,1,4.81-2.333l.013-.006.151-.067a.031.031,0,0,0-.006-.009,1,1,0,0,0,.4-.438,18.973,18.973,0,0,0,5.806-6.2,19.388,19.388,0,0,1,2.017-3.045,5.8,5.8,0,0,1,3.141-1.86,29.374,29.374,0,0,1,4.508-.687c.826-.065,1.748-.167,2.648-.162a7.006,7.006,0,0,1,1.8.213,3.764,3.764,0,0,1,1.846,1.505c.5.616,1,1.233,1.466,1.874a17.959,17.959,0,0,1,1.223,1.9,11.4,11.4,0,0,1,.589,1.221,3.538,3.538,0,0,1,.174.47c.036.155-.03.319.144.319-.718.01-.711,1.158,0,1.116,2.795-.163-1.209-5.62-1.794-6.381-.829-1.077-1.683-2.482-3.009-2.983l-.058-.02a6.84,6.84,0,0,0,.982-1.25,4.478,4.478,0,0,0,.757-1.529.315.315,0,0,0-.573-.241,10.236,10.236,0,0,0-.663,1.489c-.226.493-.5.959-.72,1.457a6.657,6.657,0,0,0-1.666-.26c.727-.984,1.969-2.883,2.118-3.127.688-1.129,1.342-2.293,1.968-3.459.676-1.263,1.255-2.578,1.9-3.855.367-.724.737-1.455,1.145-2.157a6.292,6.292,0,0,1,.463-.7,1.537,1.537,0,0,1,.115-.12l.118-.067c.235-.135.318-.449.483-.648a1.111,1.111,0,0,1,.972-.363c.847-.009,1.7.025,2.544.048q1.865.052,3.728.15c.376.02.75.041,1.126.064q2.71.161,5.412.421c1.593.152,3.186.4,4.781.52A151.586,151.586,0,0,1,110.935,46.6.635.635,0,0,0,110.875,46.747Zm-11.98,13.22a6.032,6.032,0,0,0-1,.585,5.963,5.963,0,0,0,.051-1.1A1.755,1.755,0,0,0,98.895,59.967Zm14.866-8.827a.073.073,0,0,0-.059.041,2.463,2.463,0,0,0,.506,2.884c.412.406,1.31.865,1.281,1.533-.025.54-.612.993-.863,1.439a1.471,1.471,0,0,0-.133,1.321c.239.576.908.805,1.138,1.372.29.718-.181,1.585-.512,2.211-.308.579-.705,1.158-.969,1.771a18.616,18.616,0,0,0-4.713,3.748c-1.49,1.56-2.769,3.4-5.135,3.35a.592.592,0,0,0-.524.293c-.659.03-1.319.044-1.978.047-1.158.006-2.316-.006-3.472-.042a3.567,3.567,0,0,1-.026-.9c-.014-.762-.022-1.523-.054-2.285l-.026-.637a2.193,2.193,0,0,0,2.155,1.044c1.489-.087,2.986-.331,4.46-.55.776-.115,1.551-.245,2.325-.385.636-.113,1.532-.084,1.976-.594a.268.268,0,0,0-.054-.417c-.44-.216-.717-.1-1.2,0q-.883.172-1.772.325c-1.136.2-2.275.38-3.417.541-.65.091-1.3.181-1.953.253a2,2,0,0,1-1.669-.284c-.924-.865-.406-2.315.178-3.189a.054.054,0,0,0,.007-.048c.551-.129,1.1-.28,1.65-.386,1.055-.2,2.117-.374,3.181-.527,2.185-.312,4.385-.518,6.582-.726.544-.052.55-.909,0-.858a93.691,93.691,0,0,0-9.442,1.171q-1.171.226-2.326.515a5.143,5.143,0,0,1-1.136.235c-.023,0-.047,0-.07,0-.747-.023-.856-.663-.445-1.2.051-.065.1-.131.157-.193a10.658,10.658,0,0,1,2.561-2.041c1.043-.142,2.084-.459,3.105-.691q3.783-.862,7.567-1.723c.495-.113.284-.874-.21-.762l-5.746,1.3-2.8.636c-.56.126-1.26.38-1.918.472a2.557,2.557,0,0,1-.924-.016c-.919-.218-.965-1.366-.569-2.048a5.246,5.246,0,0,1,2.027-1.679c1.29-.753,2.663-1.295,4-1.919l.714-.157a24.192,24.192,0,0,0,4.269-1.013c.39-.166.177-.781-.209-.772a16.846,16.846,0,0,0-3.057.6q-1.6.348-3.21.694a3.831,3.831,0,0,1-.839.181c-.061-.029-.083-.241-.1-.38a4.821,4.821,0,0,1-.042-1.4c.157-1.032,1.017-1.517,1.888-1.913a20.083,20.083,0,0,1,6.18-1.653c.488-.051.975-.083,1.466-.1.576-.017,1.051-.119,1.342.449A10.287,10.287,0,0,1,113.761,51.14ZM111.068,83.56c-.422-1.461-.307-3.022-.6-4.513-.149-.769-.353-1.532-.576-2.283a8.648,8.648,0,0,1-.513-1.884.055.055,0,0,1,.082-.047,4.547,4.547,0,0,1,1.393,1.659,11.126,11.126,0,0,1,.968,2.182,7.2,7.2,0,0,1,.265,4.886A.536.536,0,0,1,111.068,83.56ZM98.014,64.2a8.849,8.849,0,0,0,1.071-.183,4.093,4.093,0,0,0-.972,1.378c-.032-.4-.073-.8-.126-1.193A.16.16,0,0,0,98.014,64.2ZM94.584,94.624a12.325,12.325,0,0,1-1.622-1.6c-.525-.533.3-1.354.821-.821a10.985,10.985,0,0,0,1.387,1.414.593.593,0,0,1,.208.794A.586.586,0,0,1,94.584,94.624Zm-3.51-16.889a31.509,31.509,0,0,1,3.482-1.4.581.581,0,0,1,.309,1.12,29.025,29.025,0,0,0-3.2,1.279C90.98,79.031,90.389,78.03,91.073,77.735Zm-12.135-.348c-.281-.694.842-.992,1.119-.309.319.787.684,1.554,1,2.341.281.694-.842.993-1.119.309C79.622,78.941,79.257,78.174,78.938,77.387ZM66.961,91.238a.594.594,0,0,1-.794.208.585.585,0,0,1-.208-.794,20.449,20.449,0,0,1,1.762-2.124c.526-.533,1.346.289.821.821A18.238,18.238,0,0,0,66.961,91.238ZM65.248,13.521A10.354,10.354,0,0,1,66.7,14.782a.581.581,0,0,1-.821.821,8.772,8.772,0,0,0-1.22-1.08.592.592,0,0,1-.208-.794A.586.586,0,0,1,65.248,13.521ZM82.674,32.208a4.434,4.434,0,0,0-.59,1.881.581.581,0,0,1-1.161,0,5.79,5.79,0,0,1,.748-2.467C82.005,30.952,83.006,31.541,82.674,32.208ZM89.067,17.2c.624-.416,1.2.59.586,1l-1.5,1c-.624.416-1.2-.59-.586-1ZM61.336,43.441c-.107.738-1.225.422-1.119-.309a26.582,26.582,0,0,1,.669-3.345A.581.581,0,0,1,62,40.1,26.556,26.556,0,0,0,61.336,43.441Zm-4.07,13.3a.581.581,0,0,1,0-1.161,9.112,9.112,0,0,1,1.993.355.581.581,0,0,1-.309,1.12A7.72,7.72,0,0,0,57.266,56.743Zm-1.5,26.8c-.257.125-.52.237-.779.356l-1.558.714q-1.622.745-3.243,1.5c-2.162,1-4.341,1.967-6.508,2.957q-3.315,1.515-6.616,3.062c-1.037.484-2.082.951-3.125,1.423a9.923,9.923,0,0,1-2.973,1.175c-.05,0-.067-.06-.038-.093a5.337,5.337,0,0,1,1.446-.939c.5-.28,1-.542,1.506-.809,1.05-.556,2.1-1.108,3.16-1.645q3.18-1.61,6.368-3.2c2.167-1.085,4.331-2.178,6.516-3.225q1.544-.739,3.09-1.474l1.676-.795c.241-.114.48-.237.727-.34a5.5,5.5,0,0,1,.915-.192.479.479,0,0,1,.367.871A5.767,5.767,0,0,1,55.763,83.54Zm-7.75,11.908a.584.584,0,0,1,.405-.714.6.6,0,0,1,.714.406,6.553,6.553,0,0,0,1.355,2.085c.522.536-.3,1.358-.821.821A8.042,8.042,0,0,1,48.014,95.447Zm-5.7-18.64a.581.581,0,0,1,.821-.821l1.5,1.5a.581.581,0,0,1-.821.821ZM26.878,74.353A5.8,5.8,0,0,0,23.8,75.886c-.036.045-.1-.013-.075-.058.944-1.958,3.651-2.645,5.526-3.331,1.326-.485,2.686-.888,4.058-1.247a28.855,28.855,0,0,1,.372-4.8c.14-1.663.255-3.331.313-5,.06-1.7.074-3.415.018-5.118s-.276-3.372-.372-5.062c-.009-.163.218-.171.267-.036a21.762,21.762,0,0,1,1,4.961,40.612,40.612,0,0,1,.23,5.117c-.025,1.762-.128,3.52-.268,5.277-.067.833-.144,1.664-.217,2.5a15.805,15.805,0,0,1-.211,1.88c.827-.2,1.657-.4,2.483-.582,2.636-.6,5.283-1.147,7.908-1.791,1.289-.316,2.559-.694,3.841-1.03a27.311,27.311,0,0,1,3.723-.841c.443-.051.5.555.206.761a14.3,14.3,0,0,1-3.511,1.6c-1.168.4-2.383.684-3.58.978-2.5.614-5.018,1.117-7.536,1.64s-5.032,1.042-7.518,1.686C29.257,73.693,28.065,74,26.878,74.353ZM20.951,43.286a.581.581,0,0,1-.586-1,19.433,19.433,0,0,1,2.646-1.229c.695-.278.994.845.309,1.12A17.386,17.386,0,0,0,20.951,43.286ZM18.611,86.43a.581.581,0,0,1-.586-1c.907-.526,1.9-.877,2.842-1.338.669-.328,1.257.674.586,1C20.512,85.552,19.518,85.9,18.611,86.43Zm-1.053-24.49a6.7,6.7,0,0,0,2.251,1.189c.688.272.386,1.4-.309,1.12a8.17,8.17,0,0,1-2.763-1.487C16.194,62.244,17.017,61.425,17.558,61.939Zm6.932-33.26c.689.27.387,1.393-.309,1.12-.772-.3-1.569-.533-2.34-.836-.689-.27-.387-1.393.309-1.12C22.921,28.146,23.718,28.377,24.49,28.679ZM36.718,15.469c.732-.123,1.044,1,.309,1.12a13.6,13.6,0,0,0-2.675.669c-.7.27-1-.853-.309-1.12A13.608,13.608,0,0,1,36.718,15.469Zm4.04,32.165c-.671-.33-.082-1.331.586-1a9.425,9.425,0,0,0,2.2.777c.731.156.42,1.275-.309,1.12A10.677,10.677,0,0,1,40.759,47.634Zm3.816-18.118a.581.581,0,0,1,.309,1.12c-1.266.347-2.569.527-3.845.836-.727.176-1.034-.944-.309-1.12C42.005,30.043,43.309,29.863,44.575,29.516ZM60.763,23.83c.735.136.422,1.255-.308,1.12A12.912,12.912,0,0,0,58.1,24.8a.581.581,0,0,1,0-1.161A14.558,14.558,0,0,1,60.763,23.83Zm52.8,6.067q-2.845-.272-5.7-.435l-.264-.015a.61.61,0,0,0-.036-.06,13.567,13.567,0,0,1-1.474-2.854,14.874,14.874,0,0,0-1.329-2.878,9.351,9.351,0,0,0-2.548-2.482,11.708,11.708,0,0,0-1.658,1.37c-.534.524-1.355-.3-.821-.821a12.763,12.763,0,0,1,1.44-1.222c-.587-.357-1.186-.692-1.77-1.026q-3.285-1.875-6.72-3.462c-1.064-.492-2.14-.929-3.224-1.372-.583-.238-1.159-.544-1.743-.82a1.346,1.346,0,0,0-.4-1.145,2.99,2.99,0,0,0-.694-.414l-.118-.042q.02,0,.113.035c.148.068.16.048.035-.06-.007-.235-.47-.731-.576-.974a12.546,12.546,0,0,0-1.027-2.469,2.856,2.856,0,0,0-3.184-1.084A12.7,12.7,0,0,0,81.24,3.98a.041.041,0,0,0-.074-.01,5.643,5.643,0,0,0-.573,2.746,16.211,16.211,0,0,0,.118,2.745c-.075.058-.152.113-.232.167a5.1,5.1,0,0,1-1.2.578,9.365,9.365,0,0,1-2.5.424,30.316,30.316,0,0,1-6.582-.491c-2.172-.379-5.5-.948-7.435-2.035a41.49,41.49,0,0,1-3.645-2.44,6.557,6.557,0,0,0,.108-4.069.165.165,0,0,0-.315,0c-.273,1.124-.353,2.253-.715,3.363l-.017.049-.34-.228a.574.574,0,0,0-.773.2c-2.506,3.95-6.474,4.176-10.642,4.882a84.73,84.73,0,0,0-13.529,3.116,29.7,29.7,0,0,0-11.376,6.695,26.476,26.476,0,0,0-2.025,2.262,10.385,10.385,0,0,1,1.823.387c.711.224.406,1.344-.309,1.12a10.352,10.352,0,0,0-2.342-.423,51.408,51.408,0,0,0-5.294,9.595,70.394,70.394,0,0,0-5.442,19.9c.459-.275.926-.537,1.4-.781.665-.338,1.252.664.586,1a24.133,24.133,0,0,0-2.154,1.241A72.511,72.511,0,0,0,7.415,63a76.877,76.877,0,0,0,3.332,21.428,32.245,32.245,0,0,0,4.623,9.542,16.778,16.778,0,0,0,3.337,3.417,13.289,13.289,0,0,0,1.976,1.244,14.358,14.358,0,0,1,2.834,1.259,2.333,2.333,0,0,1,.6.813,4.422,4.422,0,0,0,.07,1.813.646.646,0,0,0,.37.417c0,.052,0,.1,0,.152,0,.023.035.029.039.006l.022-.136a.562.562,0,0,0,.177.028c2.2.008,4.411-.045,6.618-.12-.171-.523-.356-1.042-.533-1.565-.241-.71.88-1.012,1.119-.309.208.611.425,1.217.618,1.831,2.365-.088,4.729-.194,7.089-.272,5.019-.167,10.037-.222,15.057-.328,7.8-.165,15.65-.5,23.458-.173.27-.573.572-1.134.859-1.7.338-.667,1.339-.079,1,.586-.2.393-.406.781-.6,1.173,1.581.082,3.161.191,4.738.339,2.69.252,5.354.7,8.042.98a29.984,29.984,0,0,0,8.116-.218,1.072,1.072,0,0,0,.894-.742.019.019,0,0,0,.01-.009,3.986,3.986,0,0,1,.4-.415,2.856,2.856,0,0,1,.54-.271,5.617,5.617,0,0,1,1.183-.293c.444-.067.894-.073,1.338-.128a10.551,10.551,0,0,0,1.106-.206,11.148,11.148,0,0,0,1.9-.633,6.711,6.711,0,0,0,1.492-.946,12.972,12.972,0,0,0,2.5-2.516,18.881,18.881,0,0,0,1.177-1.688c.627-1.013,1.161-2.066,1.7-3.127q.294-.472.538-.965a12.1,12.1,0,0,0-3.238-.582.581.581,0,0,1,0-1.161,13.742,13.742,0,0,1,3.7.677c.059-.156.115-.313.167-.472a8.333,8.333,0,0,0,.361-1.019l.174-.47q.2-.814.393-1.632a21.918,21.918,0,0,0,.622-2.651,17.579,17.579,0,0,0,.293-1.784,33.571,33.571,0,0,0,.38-4.381q-.026-1.361-.174-2.714c-.042-.613-.113-1.222-.209-1.828-.125-.9-.248-1.791-.456-2.68l-.466-1.8a34.582,34.582,0,0,0-1.371-3.681c-.029-.075-.176-.241-.264-.242-.067,0-.16.06-.129.141l.009.023c-.03-.068-.059-.138-.09-.206s-.128-.191-.206-.19h-.015a.341.341,0,0,0,.058-.055,11.553,11.553,0,0,0,1.232-2.143,5.644,5.644,0,0,0,.685-1.877,2.156,2.156,0,0,0-.393-1.634c-.418-.539-1.2-.791-.768-1.569.5-.885,1.226-1.653.5-2.659a12.441,12.441,0,0,0-1.392-1.24,2.642,2.642,0,0,1-.726-1.909.057.057,0,0,0,.086-.035,6.17,6.17,0,0,0-.315-3.906,1.3,1.3,0,0,0-1.312-.89c2.507-4.9,4.854-9.877,6.945-14.969.07-.167.138-.334.206-.5a.522.522,0,0,0-.361-.637A46.18,46.18,0,0,0,113.56,29.9Z" transform="translate(-7.394 4.037)"/>
          </g>
          <g id="head_Medium-Bangs-2" data-name="head/Medium-Bangs-2" transform="translate(19.299 0)">
            <path id="_-Background-2" data-name="ðŸŽ¨-Background" class="cls-1" d="M55.478,24.611c-.322-.814-.892-1.836-1.845-1.877-.737-2.254-2.569-4.549-5.117-4.488-7.48-7.652-16.9-7.291-26.742-5.671-5.194.964-10.468,2.851-14.342,6.575C2.792,23.533.985,31.183,4.619,36.727c-3.14,1.683-3.2,5.678-1.858,8.561-1.614,1.117-1.712,3.827.105,4.679a1.652,1.652,0,0,0,.156,1.157A15.347,15.347,0,0,1-.022,52.905a1.434,1.434,0,0,0-.779.942c-3.184,2.09-11.124,7.2-11.029,11.261-.047,2.12,1.526,3.516,3.436,4.072-1.137,2.274-2,4.929-.912,7.382a15.854,15.854,0,0,0,2.668,2.959c.2.17,3.432-1.315,5-2.072a3.136,3.136,0,0,0,4.251,2.342c1.732-.522,2.8-1.99,3.89-3.324,1.45,3.165,5.717,3.2,8.475,1.837a10.861,10.861,0,0,0,5.408-5.77,29.735,29.735,0,0,0,18.136,2.433,1.765,1.765,0,0,0,2.014.883c3.218-.968,6.775-1.022,9.5-3.239C55.728,68.53,56.206,61,55.81,54.589c-.352-6.4-.044-12.846-1.206-19.173a36.469,36.469,0,0,1,2.12-5.26C57.567,28.321,57.549,25.593,55.478,24.611Z" transform="translate(11.976 -10.753)"/>
            <path id="_-Ink-2" data-name="ðŸ–-Ink" class="cls-2" d="M2.556,51.363a.3.3,0,0,1,.231.547C.981,53.059-.884,54.086-2.628,55.336a35.364,35.364,0,0,0-4.62,4l-.158.162c-1.292,1.33-2.723,3.021-2.737,4.982-.011,1.524,1.164,3.188,2.8,2.988a1.01,1.01,0,0,1,.97,1.273l-.227.6c-.912,2.41-1.84,5.141-1.12,7.677l.026.09c.174.581.358,1.094,1.032,1.082A6.283,6.283,0,0,0-4.8,77.761a9.11,9.11,0,0,0,3.25-1.991,1.064,1.064,0,0,1,1.771,1l0,.032C.066,77.9,1.827,78.418,2.627,78.26c1.58-.313,2.707-1.9,3.6-3.1.431-.58,1.479-.809,1.858,0A4.789,4.789,0,0,0,12.2,78a4.785,4.785,0,0,0,3.523-1.456l.066-.069a4.083,4.083,0,0,1,1.171-.914.763.763,0,0,1,1.136.652,2.407,2.407,0,0,1-.752,1.819,6.956,6.956,0,0,1-1.492,1.179,6.845,6.845,0,0,1-3.653.964,6.965,6.965,0,0,1-5.144-2.613c-1.263,1.511-2.83,2.9-4.866,2.861a4.229,4.229,0,0,1-3.625-2.051A11.205,11.205,0,0,1-4.578,79.9l-.1.03c-1.6.465-3.434.65-4.462-.936a8.043,8.043,0,0,1-.816-5.252,19.622,19.622,0,0,1,1.2-4.388,4.895,4.895,0,0,1-3.122-3.441c-.616-2.341.579-4.611,2.058-6.35a28.7,28.7,0,0,1,5.663-4.886A21.476,21.476,0,0,1,2.556,51.363ZM54.775,33.054c0-.065.11-.088.12-.016.7,5.092,1.108,10.174,1.444,15.3q.256,3.9.576,7.786a68.012,68.012,0,0,1,.465,7.539,11.83,11.83,0,0,1-5.131,9.38,22.006,22.006,0,0,1-10.314,3.736,26.2,26.2,0,0,1-6.357.029,27.828,27.828,0,0,1-3.265-.562l-.464-.116c-.846-.216-1.79-.509-1.91-1.511a1.077,1.077,0,0,1,.615-1.087,2.229,2.229,0,0,1,1.724.014,28.061,28.061,0,0,0,2.857.6,25.008,25.008,0,0,0,6.273.114,17.938,17.938,0,0,0,9.881-3.84,9.251,9.251,0,0,0,2.726-3.733,16.715,16.715,0,0,0,.564-5.946c-.054-4.614-.006-9.228-.071-13.842S54.5,37.675,54.775,33.054ZM19.611,11.491A37.931,37.931,0,0,1,32.041,10.48c3.958.3,8.467,1.185,11.7,3.62a.171.171,0,0,1-.131.311c-2.161-.345-4.268-.971-6.42-1.386a40.346,40.346,0,0,0-6.284-.768c-7.128-.235-15.059,1.381-20.806,5.826a15,15,0,0,0-5.57,8.222,14.356,14.356,0,0,0,1.3,10.213,1.028,1.028,0,0,1-.364,1.387,4.5,4.5,0,0,0-2.607,4.035,4.3,4.3,0,0,0,.761,2.325c.489.729,1.233,1.24,1.779,1.921a.754.754,0,0,1,.053.885c.32.14.664.215.979.381a.418.418,0,0,1,0,.717,1.6,1.6,0,0,1-1.912-.585,2.71,2.71,0,0,1-.222-.312,3.329,3.329,0,0,1-1.5-.785,1.588,1.588,0,0,0-.232,2.467,3.277,3.277,0,0,0,1.414.9l.063.023a2.631,2.631,0,0,1,1.314.694,8.624,8.624,0,0,1,.753-1.283c1.021-1.429,2.591-2.7,4.454-2.537a3.362,3.362,0,0,1,3.023,2.613c.022.107-.139.19-.187.079-.7-1.633-2.915-1.693-4.235-.842a7.057,7.057,0,0,0-2.74,4.644,5.842,5.842,0,0,0,1.153,5.152,3.489,3.489,0,0,0,2,1.009,3.067,3.067,0,0,0,1.044-.07l.233-.049a1.67,1.67,0,0,1,.492-.045l.253.034h0l.144.067q.187.084-.034-.046a.614.614,0,0,1,.675.63.153.153,0,0,1,.038.032c1.629,1.994,2.838,4.286,4.567,6.215l.506.565A14.116,14.116,0,0,0,22.048,70.5l.21.087c.514.217,1.03.515,1.1,1.135a1.075,1.075,0,0,1-.883,1.1c-1.149.295-2.459-.727-3.3-1.4a21.827,21.827,0,0,1-4.586-5.21l-.124-.192a14.532,14.532,0,0,1-2.3-5.367l-.054.088-.009.014a1.32,1.32,0,0,1-.208.222,1.836,1.836,0,0,1-.737.361,4.4,4.4,0,0,1-1.57.11A5.522,5.522,0,0,1,6.719,60.3c-2.525-1.981-2.824-5.668-1.8-8.659a3.3,3.3,0,0,1-2.447-.848A3.662,3.662,0,0,1,.952,48.5a2.537,2.537,0,0,1,1.333-2.533A6.991,6.991,0,0,1,.779,42.046a6.294,6.294,0,0,1,2.835-5.422,16.429,16.429,0,0,1-.867-11.529C4.978,17.555,12.448,13.339,19.611,11.491ZM13.253,68.775l.021-.066c.178-.583.407-1.743,1.278-1.3.832.422.3,1.67.01,2.278A2.52,2.52,0,0,1,12.8,71.151a1.966,1.966,0,0,1-1.837-.544,1.724,1.724,0,0,1-.289-.489.7.7,0,0,1-.051-.149.324.324,0,0,1-.084.145,7.406,7.406,0,0,0-.979,1.341c-.063.112-.261.034-.211-.089.31-.758.258-1.93.948-2.478.609-.483,1.181-.1,1.5.46l.016.029C12.292,70.231,13.042,69.42,13.253,68.775ZM6.632,66.036l.064-.088c.651-.89,1.748-1.96,2.847-1.133a.568.568,0,0,1,0,.964l-.137.1a5.227,5.227,0,0,0-1.31,1.15,7.323,7.323,0,0,1-1.242,1.509,2.264,2.264,0,0,1-3.172-.111l-.078-.1a3.076,3.076,0,0,1-.2-.29l-.048.066-.013.019-.011.017a4.149,4.149,0,0,1-1.246,1.284,3.613,3.613,0,0,1-3.164.391.1.1,0,0,1,.025-.187,3.94,3.94,0,0,0,3.1-2.238l.06-.134a1.8,1.8,0,0,1,.984-1.11,1.317,1.317,0,0,1,1.41.4c.3.326.371.974.9.831C5.984,67.217,6.313,66.486,6.632,66.036ZM2.9,58.121a.561.561,0,0,1,.819.334,2.875,2.875,0,0,1-2.57,3.177A2.117,2.117,0,0,1,.1,61.382c-.254-.133-.554-.472-.833-.528-.36-.072-.679.407-.932.653a9.5,9.5,0,0,1-.978.85.206.206,0,0,1-.3-.231l.119-.318c.431-1.131,1.174-2.782,2.565-2.313.681.23,1.194,1.005,1.911.391C2.227,59.4,2.281,58.594,2.9,58.121Zm6.135-5.789c1.3-1.488,4.343-.7,4.921,1.109a1.219,1.219,0,0,1-.318,1.2,1.258,1.258,0,0,1-1.5.193c-.43-.252-.606-.663-.922-1.016A3.8,3.8,0,0,0,9.479,52.81a1.866,1.866,0,0,0-.449.333c-.069.069-.2-.026-.139-.107a1.87,1.87,0,0,1,.3-.312l-.056-.016h0A.227.227,0,0,1,9.038,52.332ZM17.462,35.9a.6.6,0,0,1,.592.592l-.011.088a1.363,1.363,0,0,1-.885,1.232,4.88,4.88,0,0,1-1.62.423,4.056,4.056,0,0,1-.669,0l-.048.278a11.978,11.978,0,0,0-.2,1.682,6.375,6.375,0,0,0,.782,2.859,6.093,6.093,0,0,1,.019,5.408.884.884,0,0,1-.787.452.929.929,0,0,1-.787-.452.9.9,0,0,1-.015-.891l.015-.03A3.99,3.99,0,0,0,14.2,44.77c-.213-.888-.695-1.685-.91-2.57a5.494,5.494,0,0,1,.752-4.108,2.709,2.709,0,0,1-1.4-.873h0c-.13-.139-.059-.428.169-.411l.257.021a5.89,5.89,0,0,0,2.159-.08,3.7,3.7,0,0,0,1.039-.494l.07-.046A1.647,1.647,0,0,1,17.462,35.9Zm1.763-10.654a4.479,4.479,0,0,1,4.189,2.737,6.781,6.781,0,0,1-.252,5.516l-.209.485a4.933,4.933,0,0,1-1.593,2.291c-.84.507-1.567-.081-1.319-1.015a4.762,4.762,0,0,1,.871-1.444,12.769,12.769,0,0,0,.83-1.335,6.336,6.336,0,0,0,.841-2.959c-.007-1.9-1.26-4.073-3.359-4.045A.116.116,0,0,1,19.225,25.244Zm9.338-3.062c-.115-.087-.012-.282.117-.2a9.368,9.368,0,0,1,4.061,6.435,7.717,7.717,0,0,1-.552,4.172,2.805,2.805,0,0,1-1.742,1.646,1.476,1.476,0,0,1-1.759-.977.67.67,0,0,1,.3-.738,4.456,4.456,0,0,0,1.734-1.995,7.239,7.239,0,0,0,.527-2.792A6.675,6.675,0,0,0,28.563,22.182Zm26.153.974a.13.13,0,0,1,.157-.2,5.578,5.578,0,0,1,2.813,4.083,6.121,6.121,0,0,1-1.39,5.159c-.73.683-2.039-.225-1.431-1.1A7.432,7.432,0,0,0,56,29.226a5.89,5.89,0,0,0,.284-2A6.219,6.219,0,0,0,54.716,23.156ZM35.792,21.061c2.645-.126,4.247,2.894,4.614,5.145a5.709,5.709,0,0,1-.711,4.029l-.045.07c-.633.964-1.785,2.073-3.026,1.617a.719.719,0,0,1-.312-1.183c.54-.654,1.374-.92,1.882-1.618a4.323,4.323,0,0,0,.723-2.715l0-.105c-.088-1.751-.923-5.11-3.12-5.051C35.669,21.255,35.671,21.067,35.792,21.061Zm8.272-.5c2.558-.327,4.116,2.683,4.6,4.757a8.042,8.042,0,0,1-.018,4.029l-.029.092c-.312.96-1.234,2.606-2.437,2.115-.33-.134-.666-.5-.508-.9.2-.5.492-.636.88-.959a2.568,2.568,0,0,0,.661-.957,6.783,6.783,0,0,0,.444-3.041l-.008-.12c-.145-1.972-1.213-4.912-3.581-4.857C43.956,20.725,43.964,20.572,44.064,20.56Zm4.683-2.83c1.424-.542,2.59.819,3.408,1.791a13.015,13.015,0,0,1,2.481,4.045,6.864,6.864,0,0,1,.129,4.227,5.612,5.612,0,0,1-.978,1.868l-.057.07a1.485,1.485,0,0,1-1.665.708.564.564,0,0,1-.385-.678c.114-.622.435-.784.85-1.218a3.906,3.906,0,0,0,.82-1.351,5.5,5.5,0,0,0,.143-3.186,11.079,11.079,0,0,0-1.484-3.291L51.87,20.5c-.683-1.08-1.656-2.742-3.1-2.567C48.651,17.945,48.649,17.767,48.747,17.73Z" transform="translate(12.042 -10.356)"/>
          </g>
          <g id="face_Concerned-Fear" data-name="face/Concerned-Fear" transform="translate(58.477 29.322)">
            <path id="_-Ink-3" data-name="ðŸ–-Ink" class="cls-2" d="M27.76,34.486a5.866,5.866,0,0,1,3.573.939c1.121.659,2.319,1.508,2.6,2.78A2.343,2.343,0,0,1,32.528,41c-.644.253-8.065.845-9.229.923a3.666,3.666,0,0,1-3.022-.794c-1.931-2,.751-4.6,2.465-5.561A10.166,10.166,0,0,1,27.76,34.486Zm-.4,1.351c-1.3,0-3.418.948-3.418,1.41s6.186,0,6.319-.392S28.657,35.837,27.362,35.837Zm1-10.579c1.1.666,2.765,2.22,1.587,3.872-1.388,1.456-3.385-.213-4.37-.969-.913-.585-1.938.92-1.091,1.6,7.113,5.269,10-4.332,4.429-5.29C28.3,24.37,28.072,25.053,28.359,25.259ZM15.985,19.22A3.305,3.305,0,0,1,21.1,21.059a.967.967,0,0,1,.532.827l.009.1h0a1.079,1.079,0,0,1-.782,1.028,1.665,1.665,0,0,1-1.266-.131,1.05,1.05,0,0,1-.483-1.137l.007-.034a1.193,1.193,0,0,0-.763-1.2,1.5,1.5,0,0,0-1.48.216A2.636,2.636,0,0,0,15.867,22.2l-.013.059c-.106.491-.186,1.414.291,1.7a.082.082,0,0,1-.063.149,1.8,1.8,0,0,1-1.659-1.916A3.731,3.731,0,0,1,15.985,19.22Zm17.186-.392c1.864-.661,4.195,1.115,3.477,3.167a1.1,1.1,0,0,1-2.125-.543l.006-.041c.108-.7-.424-1.034-1.076-.8a2.175,2.175,0,0,0-1.035,2.747.1.1,0,0,1-.165.1l-.062-.1a3.214,3.214,0,0,1-.8-2.43A2.758,2.758,0,0,1,33.171,18.828Zm-3.78-4.884a.138.138,0,0,1,.172-.131,9.393,9.393,0,0,1,1.866.961,10.829,10.829,0,0,0,2.048.819,7.525,7.525,0,0,0,2.125.289c.784-.007,1.551-.3,2.319-.277a1.242,1.242,0,0,1,.621,2.3c-1.657.841-4.115.23-5.726-.469C31.519,16.868,29.475,15.538,29.391,13.944Zm-8.417.384a1.4,1.4,0,1,1,1.31,2.186,19.115,19.115,0,0,1-5.358,1.6l-.254.032A9.514,9.514,0,0,1,11.5,17.7a.186.186,0,0,1,.044-.336c.833-.238,1.765-.238,2.621-.394a21.62,21.62,0,0,0,2.415-.554A15.613,15.613,0,0,0,20.974,14.328Z" transform="translate(-11.408 -13.738)"/>
          </g>
        </g>
      </g>
    </g>
  </g>
</svg>
