<svg id="Group_34" data-name="Group 34" xmlns="http://www.w3.org/2000/svg" width="109.93" height="159.529" viewBox="0 0 109.93 159.529">
  <defs>
    <style>
      .cls-1 {
        fill: #fff;
      }

      .cls-1, .cls-2 {
        fill-rule: evenodd;
      }
    </style>
  </defs>
  <path id="Path_9" data-name="Path 9" class="cls-1" d="M52.4,160.9c1.24-4.812,2.381-6.852,4.585-8.525,2.061-1.564,5.07-2.878,9.46-3.838,4.572-.8,4.7-3.177,5.849-7A1.656,1.656,0,0,1,75,140.913a3.346,3.346,0,0,1,.315-.3c-.1-.548.7-2.118.674-2.642-.278-5.468,1.51-8.215,5.974-9.235a50.05,50.05,0,0,1,8.511-.092c4.138,1.144,8.211,4.777,7.588,9.154a8.1,8.1,0,0,0,4.574,3.281q6.689.85,13.379,1.5a37.02,37.02,0,0,1,22.514,12.734,1.755,1.755,0,0,1,.21,2.131c.357,1.529,2.365,5.237.785,6.285,2.6,6.216,8.578,18.232,8.589,21.665.047,14.421-1.51,33.192-15.738,41.172a4.059,4.059,0,0,0-.9,2.013,5.414,5.414,0,0,1-5.384,4.349c-12.249.272-24.113-1.223-36.362-1.295a148.277,148.277,0,0,0-16.591,1.312,34.34,34.34,0,0,1-13.932-1.312,1.826,1.826,0,0,1-1.927.775c-4.668-.928-8.444-3.805-11.732-6.95-1-1.828-4.929-7.037-3.369-8.85-1.414-5.979-1.34-12.4,1.172-18.1-.356-1.043.293-2.191,0-3.268-.212-.78-.755-1.1-1.029-1.875a5.743,5.743,0,0,1,.467-3.654c.177-.552-.327-1.147-.467-1.711-.664-2.66.857-2.426,1.954-4.2-.017-.005-.3-1.274-.3-1.268a5.128,5.128,0,0,1,.62-2.824,1.332,1.332,0,0,1,1.307-.773,48.2,48.2,0,0,0-1.927-5.047,52.9,52.9,0,0,0-4.734-8.777,1.7,1.7,0,0,1,1.475-2.53A74.383,74.383,0,0,0,52.4,160.9Z" transform="translate(-38.55 -74.543)"/>
  <path id="Path_10" data-name="Path 10" class="cls-2" d="M63.8,186.707a17.3,17.3,0,0,1,4.977-1.092c-.918-.161-1.839-.317-2.767-.4a1.983,1.983,0,0,0-1.735.441,4.7,4.7,0,0,0-.69,1.136C63.655,186.765,63.728,186.735,63.8,186.707Zm-16.91-5.778a19.862,19.862,0,0,1,7.5,1.856,3.409,3.409,0,0,1,2.074,2.2,4.844,4.844,0,0,1,.028,1.681c-.051.423-.064.963-.431,1.249a.8.8,0,0,1-.2.112,17.506,17.506,0,0,1,2.41,1.336,4.427,4.427,0,0,1,1.658,1.882c.026-.087.051-.168.077-.245a6.854,6.854,0,0,1,2.6-3.671.561.561,0,0,1-.307-.67,3.1,3.1,0,0,1,3.014-2.493A12.418,12.418,0,0,1,70,185.555c.519-.011,1.037,0,1.55.018a.066.066,0,0,1,0,.133c-.416.053-.831.111-1.247.179-.988.158-1.972.359-2.936.608a18.434,18.434,0,0,0-3.431,1.122,6.14,6.14,0,0,0-3.126,5.978c.044.379.191,1.523.716,1.405.444-.1.62-1.027.775-1.369a3.889,3.889,0,0,1,2.063-1.91c1.054-.474,2.183-.794,3.276-1.167q.929-.318,1.858-.635a3.476,3.476,0,0,1,1.914-.366.52.52,0,0,1,.226.858,2.785,2.785,0,0,1-1.369.726l-1.986.692c-1.023.356-2.095.656-3.093,1.092l.032.071a.137.137,0,0,1,.16.158,7.5,7.5,0,0,0-.126,2.909c.182.732.824,1.542,1.658,1.327a.444.444,0,0,1-.092-.517c.331-.706,4.657-3.494,5.043-2.459.013.037-.027.064-.059.059-.329-.069-.88.492-1.142.67-.38.257-.766.507-1.142.77-.411.288-.812.59-1.2.9a3.178,3.178,0,0,1-.893.624.744.744,0,0,1,.394.461,1.858,1.858,0,0,0,1,1.248,5.593,5.593,0,0,0,1.778.154,3.592,3.592,0,0,1,2.088,1.008c1.228,1.147,1.844,3.169,3.562,3.712a7.374,7.374,0,0,0,3.2-.027,11.959,11.959,0,0,1,3.458-.123,11.678,11.678,0,0,1,3.2,1.023,14.892,14.892,0,0,1,2.866,1.6c.175-.54.352-1.073.486-1.624a19.374,19.374,0,0,0,.528-3.968,32.909,32.909,0,0,0-.143-3.822c-.054-.634-.139-1.264-.193-1.9-.014-.159-.042-.33-.064-.5a43.794,43.794,0,0,0-4.717-2.288l-.013-.005c-.05-.023-.1-.044-.148-.065a.024.024,0,0,1,.005-.009.979.979,0,0,1-.389-.43,18.612,18.612,0,0,1-5.694-6.079,18.98,18.98,0,0,0-1.978-2.987,5.686,5.686,0,0,0-3.081-1.824,28.823,28.823,0,0,0-4.422-.673c-.81-.064-1.715-.164-2.6-.16a6.842,6.842,0,0,0-1.769.209,3.684,3.684,0,0,0-1.81,1.476c-.491.6-.979,1.209-1.437,1.838a17.558,17.558,0,0,0-1.2,1.859,11.184,11.184,0,0,0-.578,1.2,3.555,3.555,0,0,0-.17.461c-.036.152.03.313-.141.313.7.01.7,1.136,0,1.095-2.741-.159,1.186-5.512,1.759-6.258.812-1.057,1.65-2.435,2.951-2.926.019-.007.038-.014.057-.02a6.7,6.7,0,0,1-.963-1.226,4.385,4.385,0,0,1-.743-1.5.309.309,0,0,1,.562-.236,10.086,10.086,0,0,1,.651,1.46c.222.484.492.941.706,1.429a6.512,6.512,0,0,1,1.634-.255c-.713-.965-1.931-2.828-2.078-3.067-.674-1.107-1.316-2.249-1.929-3.392-.664-1.239-1.231-2.529-1.866-3.782-.36-.71-.723-1.426-1.123-2.115a6.188,6.188,0,0,0-.454-.688,1.54,1.54,0,0,0-.112-.119l-.115-.065c-.23-.132-.312-.44-.474-.635a1.091,1.091,0,0,0-.954-.356c-.831-.009-1.665.024-2.494.047q-1.83.051-3.656.147c-.368.02-.736.04-1.1.063q-2.658.158-5.309.413c-1.562.149-3.125.393-4.689.509a148.756,148.756,0,0,0,7.124,14.744A.616.616,0,0,1,46.891,180.929ZM58.64,193.895a5.9,5.9,0,0,1,.982.574,5.861,5.861,0,0,1-.05-1.076A1.725,1.725,0,0,1,58.64,193.895Zm-14.58-8.657a.071.071,0,0,1,.059.04,2.415,2.415,0,0,1-.5,2.828c-.4.4-1.285.849-1.257,1.5.024.529.6.974.847,1.411a1.444,1.444,0,0,1,.131,1.3c-.235.565-.891.79-1.116,1.345-.284.7.178,1.555.5,2.168.3.568.692,1.136.95,1.737a18.24,18.24,0,0,1,4.622,3.677c1.462,1.53,2.715,3.331,5.037,3.286a.581.581,0,0,1,.514.287c.646.03,1.293.043,1.939.046,1.136.005,2.271-.005,3.406-.041a3.49,3.49,0,0,0,.026-.88c.014-.748.022-1.493.053-2.241.009-.207.018-.417.026-.625a2.151,2.151,0,0,1-2.113,1.024c-1.46-.086-2.929-.325-4.374-.54-.762-.112-1.522-.24-2.28-.377-.623-.111-1.5-.083-1.938-.583a.262.262,0,0,1,.053-.408c.431-.212.7-.094,1.177,0q.867.168,1.738.319c1.114.193,2.231.373,3.351.531.637.09,1.276.178,1.916.248a1.962,1.962,0,0,0,1.636-.279c.907-.849.4-2.271-.175-3.128a.05.05,0,0,1-.007-.046c-.541-.127-1.08-.275-1.618-.379-1.035-.2-2.077-.367-3.119-.517-2.143-.306-4.3-.508-6.455-.711-.534-.052-.54-.891,0-.841a91.742,91.742,0,0,1,9.26,1.148q1.148.222,2.281.505a5.088,5.088,0,0,0,1.115.231c.022,0,.045,0,.068,0,.733-.022.839-.65.437-1.173-.05-.064-.1-.128-.154-.189a10.453,10.453,0,0,0-2.511-2c-1.024-.139-2.044-.45-3.046-.678q-3.709-.846-7.421-1.689c-.485-.111-.279-.858.206-.748l5.635,1.277,2.75.624c.549.123,1.235.372,1.881.463a2.514,2.514,0,0,0,.907-.016c.9-.214.946-1.34.558-2.009a5.146,5.146,0,0,0-1.989-1.647c-1.265-.739-2.611-1.27-3.926-1.882l-.7-.154a23.705,23.705,0,0,1-4.186-.994c-.383-.162-.174-.766.2-.757a16.561,16.561,0,0,1,3,.583q1.573.342,3.148.68a3.764,3.764,0,0,0,.822.179c.059-.029.081-.236.1-.373a4.749,4.749,0,0,0,.041-1.374c-.154-1.012-1-1.487-1.852-1.876a19.68,19.68,0,0,0-6.061-1.621q-.716-.075-1.437-.1c-.565-.018-1.031-.117-1.317.44A10.107,10.107,0,0,0,44.06,185.237Zm2.641,31.8c.414-1.433.3-2.964.585-4.426.146-.754.346-1.5.564-2.238a8.491,8.491,0,0,0,.5-1.848.054.054,0,0,0-.08-.046,4.46,4.46,0,0,0-1.367,1.627,10.932,10.932,0,0,0-.95,2.14,7.063,7.063,0,0,0-.26,4.793A.526.526,0,0,0,46.7,217.035Zm12.8-18.986a8.775,8.775,0,0,1-1.05-.179,4.009,4.009,0,0,1,.954,1.351c.031-.392.071-.782.123-1.171Zm3.365,29.836a12.128,12.128,0,0,0,1.591-1.565c.515-.523-.29-1.328-.806-.8a10.759,10.759,0,0,1-1.36,1.387.582.582,0,0,0-.2.779A.574.574,0,0,0,62.868,227.885Zm3.443-16.564a30.83,30.83,0,0,0-3.415-1.369.57.57,0,0,0-.3,1.1,28.313,28.313,0,0,1,3.143,1.255C66.4,212.592,66.982,211.611,66.311,211.321Zm11.9-.342c.276-.68-.827-.973-1.1-.3-.313.772-.671,1.524-.983,2.3-.276.68.826.973,1.1.3C77.542,212.5,77.9,211.752,78.213,210.98ZM89.96,224.564a.582.582,0,0,0,.779.2.574.574,0,0,0,.2-.779,20.138,20.138,0,0,0-1.728-2.083c-.515-.523-1.32.283-.8.806A17.953,17.953,0,0,1,89.96,224.564Zm1.679-76.222a10.137,10.137,0,0,0-1.427,1.237.57.57,0,0,0,.8.8,8.664,8.664,0,0,1,1.2-1.059.57.57,0,0,0-.575-.983ZM74.549,166.67a4.353,4.353,0,0,1,.578,1.844.57.57,0,0,0,1.138,0,5.674,5.674,0,0,0-.734-2.42C75.2,165.438,74.223,166.016,74.549,166.67Zm-6.271-14.72c-.612-.408-1.182.579-.575.983l1.475.984c.612.408,1.182-.579.575-.983Zm27.2,25.736c.1.724,1.2.414,1.1-.3a26.1,26.1,0,0,0-.656-3.28.57.57,0,0,0-1.1.3A26,26,0,0,1,95.477,177.686Zm3.992,13.046a.57.57,0,0,0,0-1.138,8.9,8.9,0,0,0-1.955.348.57.57,0,0,0,.3,1.1A7.572,7.572,0,0,1,99.468,190.733Zm1.473,26.282c.252.123.511.232.765.349l1.528.7q1.591.73,3.18,1.466c2.121.982,4.257,1.929,6.383,2.9q3.251,1.485,6.489,3c1.017.475,2.042.933,3.065,1.4a9.744,9.744,0,0,0,2.916,1.152c.049,0,.066-.059.038-.091a5.246,5.246,0,0,0-1.418-.922c-.487-.274-.983-.531-1.477-.794-1.029-.546-2.06-1.087-3.1-1.613q-3.119-1.578-6.246-3.141c-2.125-1.064-4.247-2.136-6.391-3.163q-1.514-.725-3.031-1.446L102,216.033c-.237-.112-.471-.233-.713-.333a5.446,5.446,0,0,0-.9-.188.47.47,0,0,0-.36.854A5.713,5.713,0,0,0,100.942,217.014Zm7.6,11.678a.572.572,0,0,0-.4-.7.589.589,0,0,0-.7.4,6.421,6.421,0,0,1-1.329,2.045c-.511.526.293,1.332.805.806A7.89,7.89,0,0,0,108.542,228.693Zm5.592-18.282a.57.57,0,0,0-.805-.8l-1.475,1.476a.57.57,0,0,0,.805.8ZM129.272,208a5.694,5.694,0,0,1,3.021,1.5c.035.044.095-.012.073-.057-.926-1.92-3.581-2.593-5.42-3.266-1.3-.476-2.634-.87-3.98-1.223a28.293,28.293,0,0,0-.365-4.709c-.138-1.631-.25-3.267-.307-4.9-.059-1.669-.073-3.35-.018-5.02s.271-3.307.365-4.964c.009-.16-.214-.168-.262-.036a21.342,21.342,0,0,0-.979,4.865,39.817,39.817,0,0,0-.226,5.018c.025,1.729.125,3.453.263,5.175.065.816.141,1.632.213,2.448a15.486,15.486,0,0,0,.207,1.844c-.812-.2-1.625-.387-2.436-.571-2.585-.584-5.181-1.126-7.756-1.757-1.264-.309-2.509-.68-3.767-1.01a26.8,26.8,0,0,0-3.651-.825c-.434-.049-.489.545-.2.746a14.027,14.027,0,0,0,3.443,1.566c1.146.39,2.337.671,3.512.96,2.449.6,4.922,1.1,7.391,1.609s4.936,1.021,7.373,1.654C126.938,207.357,128.108,207.663,129.272,208Zm5.813-30.47a.57.57,0,0,0,.575-.983,19.087,19.087,0,0,0-2.6-1.206c-.681-.273-.975.829-.3,1.1A17.041,17.041,0,0,1,135.085,177.535Zm2.3,42.314a.57.57,0,0,0,.574-.983c-.89-.517-1.865-.861-2.787-1.312-.656-.322-1.233.661-.575.983C135.515,218.988,136.49,219.332,137.38,219.848Zm1.032-24.019a6.561,6.561,0,0,1-2.208,1.165c-.674.267-.379,1.368.3,1.1a8.021,8.021,0,0,0,2.71-1.459C139.75,196.128,138.944,195.324,138.412,195.829Zm-6.8-32.62c-.676.265-.38,1.366.3,1.1.757-.3,1.538-.523,2.3-.82.675-.265.38-1.366-.3-1.1C133.152,162.686,132.371,162.912,131.614,163.209Zm-11.993-12.956c-.718-.121-1.024.976-.3,1.1a13.346,13.346,0,0,1,2.623.656c.685.265.979-.837.3-1.1A13.306,13.306,0,0,0,119.621,150.253ZM115.658,181.8c.658-.323.081-1.305-.575-.983a9.241,9.241,0,0,1-2.159.763c-.717.153-.412,1.251.3,1.1A10.461,10.461,0,0,0,115.658,181.8Zm-3.743-17.769a.57.57,0,0,0-.3,1.1c1.242.34,2.52.517,3.771.82.713.173,1.014-.926.3-1.1C114.436,164.546,113.157,164.37,111.915,164.03Zm-15.877-5.577c-.721.133-.414,1.231.3,1.1a12.654,12.654,0,0,1,2.308-.144.57.57,0,0,0,0-1.138A14.286,14.286,0,0,0,96.038,158.453ZM44.257,164.4q2.79-.267,5.589-.427l.259-.015a.676.676,0,0,1,.036-.058,13.306,13.306,0,0,0,1.446-2.8,14.576,14.576,0,0,1,1.3-2.823,9.164,9.164,0,0,1,2.5-2.435,11.5,11.5,0,0,1,1.627,1.345c.523.514,1.328-.291.8-.806a12.5,12.5,0,0,0-1.412-1.2c.575-.35,1.163-.679,1.736-1.006q3.221-1.839,6.59-3.4c1.043-.483,2.1-.911,3.163-1.345.572-.234,1.137-.534,1.709-.8a1.319,1.319,0,0,1,.39-1.124,2.921,2.921,0,0,1,.68-.406c.061-.022.1-.034.115-.042-.013,0-.05.014-.111.034-.145.067-.156.047-.034-.059.007-.23.461-.717.564-.955a12.328,12.328,0,0,1,1.008-2.422A2.8,2.8,0,0,1,75.34,142.6a12.47,12.47,0,0,1,.615-3.616.041.041,0,0,1,.073-.01,5.537,5.537,0,0,1,.562,2.694,15.92,15.92,0,0,1-.115,2.692c.074.057.15.111.228.164a5,5,0,0,0,1.178.567,9.175,9.175,0,0,0,2.451.416,29.747,29.747,0,0,0,6.455-.481c2.131-.372,5.4-.93,7.293-2a40.638,40.638,0,0,0,3.575-2.393,6.429,6.429,0,0,1-.105-3.99.162.162,0,0,1,.309,0c.267,1.1.346,2.209.7,3.3.005.015.011.032.017.048.111-.075.222-.15.333-.223a.563.563,0,0,1,.758.2c2.458,3.874,6.35,4.1,10.437,4.788a83.171,83.171,0,0,1,13.269,3.057,29.126,29.126,0,0,1,11.157,6.566,25.9,25.9,0,0,1,1.986,2.218,10.2,10.2,0,0,0-1.788.379c-.7.22-.4,1.319.3,1.1a10.129,10.129,0,0,1,2.3-.415,50.44,50.44,0,0,1,5.192,9.41,69.041,69.041,0,0,1,5.337,19.512c-.45-.269-.908-.527-1.378-.766-.652-.331-1.228.651-.575.983a23.672,23.672,0,0,1,2.112,1.217,71.108,71.108,0,0,1,.344,8.855,75.4,75.4,0,0,1-3.268,21.017,31.621,31.621,0,0,1-4.534,9.358,16.469,16.469,0,0,1-3.273,3.351,13,13,0,0,1-1.938,1.22,14.076,14.076,0,0,0-2.779,1.235,2.286,2.286,0,0,0-.586.8,4.336,4.336,0,0,1-.068,1.778.634.634,0,0,1-.363.409c0,.051,0,.1,0,.149,0,.023-.034.029-.038.006-.007-.044-.014-.088-.021-.134a.537.537,0,0,1-.174.028c-2.162.008-4.326-.045-6.491-.119.167-.513.349-1.021.523-1.535.236-.7-.864-.993-1.1-.3-.2.6-.417,1.194-.606,1.8-2.319-.086-4.638-.19-6.952-.266-4.923-.164-9.844-.218-14.768-.322-7.647-.162-15.349-.494-23.007-.17-.265-.562-.561-1.111-.842-1.666-.332-.655-1.314-.078-.983.575.2.385.4.766.59,1.151-1.551.081-3.1.187-4.647.333-2.639.247-5.251.687-7.887.961a29.389,29.389,0,0,1-7.959-.214,1.049,1.049,0,0,1-.876-.728.016.016,0,0,1-.01-.009,3.958,3.958,0,0,0-.4-.407,2.8,2.8,0,0,0-.53-.266,5.448,5.448,0,0,0-1.159-.288c-.436-.065-.877-.071-1.312-.125a10.494,10.494,0,0,1-1.085-.2,10.886,10.886,0,0,1-1.866-.621,6.579,6.579,0,0,1-1.463-.928,12.7,12.7,0,0,1-2.456-2.467,18.492,18.492,0,0,1-1.155-1.655c-.614-.994-1.138-2.026-1.668-3.067q-.288-.463-.527-.946a11.86,11.86,0,0,1,3.176-.571.57.57,0,0,0,0-1.139,13.48,13.48,0,0,0-3.63.664c-.058-.153-.113-.307-.164-.463a8.009,8.009,0,0,1-.354-1l-.171-.461q-.192-.8-.385-1.6a21.412,21.412,0,0,1-.611-2.6,17.387,17.387,0,0,1-.288-1.75,33.015,33.015,0,0,1-.373-4.3q.025-1.335.17-2.662.063-.9.205-1.792c.122-.883.243-1.757.447-2.628l.457-1.768a33.916,33.916,0,0,1,1.345-3.611c.028-.073.172-.236.259-.238.065,0,.157.059.127.139l-.008.022c.03-.067.058-.135.088-.2s.125-.188.2-.187h.014a.326.326,0,0,1-.057-.054,11.358,11.358,0,0,1-1.208-2.1,5.548,5.548,0,0,1-.672-1.841,2.115,2.115,0,0,1,.386-1.6c.41-.528,1.181-.776.752-1.539-.486-.868-1.2-1.621-.489-2.608a12.149,12.149,0,0,1,1.365-1.216,2.591,2.591,0,0,0,.711-1.872.056.056,0,0,1-.084-.034,6.052,6.052,0,0,1,.309-3.831,1.269,1.269,0,0,1,1.287-.872c-2.459-4.8-4.76-9.687-6.812-14.681-.068-.164-.135-.327-.2-.491a.512.512,0,0,1,.354-.625A45.217,45.217,0,0,1,44.257,164.4Z" transform="translate(-38.451 -77.165)"/>
  <path id="Path_11" data-name="Path 11" class="cls-1" d="M68.5,62.4c.316-.8.875-1.8,1.809-1.841.723-2.21,2.52-4.461,5.019-4.4,7.336-7.5,16.572-7.151,26.227-5.562,5.095.945,10.267,2.8,14.066,6.448,4.551,4.3,6.323,11.8,2.759,17.24,3.08,1.651,3.14,5.569,1.822,8.4,1.583,1.1,1.679,3.753-.1,4.589a1.618,1.618,0,0,1-.153,1.134,15.046,15.046,0,0,0,2.985,1.747,1.408,1.408,0,0,1,.764.924c3.123,2.05,10.91,7.058,10.817,11.045.046,2.079-1.5,3.448-3.37,3.993,1.115,2.23,1.961,4.835.894,7.24a15.531,15.531,0,0,1-2.617,2.9c-.195.167-3.366-1.289-4.907-2.032a3.075,3.075,0,0,1-4.169,2.3c-1.7-.512-2.743-1.951-3.815-3.26-1.422,3.1-5.607,3.14-8.312,1.8a10.654,10.654,0,0,1-5.3-5.66,29.162,29.162,0,0,1-17.787,2.387,1.731,1.731,0,0,1-1.975.866c-3.156-.949-6.645-1-9.32-3.177-5.575-4-6.045-11.385-5.656-17.676.345-6.273.043-12.6,1.183-18.8a35.682,35.682,0,0,0-2.079-5.159C66.446,66.043,66.464,63.368,68.5,62.4Z" transform="translate(-43.65 -48.813)"/>
  <path id="Path_12" data-name="Path 12" class="cls-2" d="M120.7,88.618a.3.3,0,0,0-.226.536c1.771,1.127,3.6,2.133,5.311,3.359a34.73,34.73,0,0,1,4.531,3.921l.155.159c1.267,1.3,2.67,2.963,2.684,4.886.011,1.495-1.141,3.127-2.749,2.93a.991.991,0,0,0-.951,1.25l.222.584c.894,2.364,1.8,5.043,1.1,7.53l-.026.089c-.171.569-.351,1.072-1.012,1.061a6.164,6.164,0,0,1-1.825-.415,8.94,8.94,0,0,1-3.187-1.953,1.044,1.044,0,0,0-1.737.978l0,.031c.149,1.084-1.577,1.588-2.362,1.433-1.55-.307-2.655-1.861-3.535-3.045-.423-.569-1.451-.793-1.822,0a4.7,4.7,0,0,1-4.031,2.795,4.7,4.7,0,0,1-3.455-1.428l-.065-.068a4,4,0,0,0-1.149-.9.748.748,0,0,0-1.114.639,2.362,2.362,0,0,0,.737,1.784,6.822,6.822,0,0,0,1.463,1.157,6.718,6.718,0,0,0,3.583.946,6.833,6.833,0,0,0,5.045-2.563c1.239,1.481,2.775,2.843,4.772,2.806a4.147,4.147,0,0,0,3.555-2.012,10.994,10.994,0,0,0,3.083,1.49l.1.029c1.566.456,3.368.637,4.376-.918a7.887,7.887,0,0,0,.8-5.151,19.245,19.245,0,0,0-1.179-4.3,4.8,4.8,0,0,0,3.062-3.374c.6-2.3-.568-4.523-2.018-6.228a28.157,28.157,0,0,0-5.554-4.793A21.055,21.055,0,0,0,120.7,88.618ZM69.489,70.66c0-.064-.108-.086-.118-.016-.688,4.994-1.087,9.978-1.416,15.006q-.251,3.82-.565,7.636a66.762,66.762,0,0,0-.456,7.394,11.6,11.6,0,0,0,5.033,9.2,21.578,21.578,0,0,0,10.116,3.664,25.676,25.676,0,0,0,6.235.028,27.282,27.282,0,0,0,3.2-.551l.455-.114c.829-.212,1.755-.5,1.873-1.483a1.056,1.056,0,0,0-.6-1.066,2.188,2.188,0,0,0-1.691.014,27.551,27.551,0,0,1-2.8.586,24.518,24.518,0,0,1-6.152.112,17.591,17.591,0,0,1-9.691-3.766,9.069,9.069,0,0,1-2.674-3.661,16.389,16.389,0,0,1-.553-5.832c.053-4.525.006-9.05.069-13.576S69.759,75.193,69.489,70.66Zm34.488-21.148a37.2,37.2,0,0,0-12.19-.991c-3.882.293-8.3,1.162-11.474,3.551a.168.168,0,0,0,.129.3c2.119-.338,4.186-.953,6.3-1.359a39.56,39.56,0,0,1,6.163-.753c6.991-.231,14.77,1.354,20.407,5.714a14.715,14.715,0,0,1,5.463,8.064,14.079,14.079,0,0,1-1.275,10.017,1.008,1.008,0,0,0,.357,1.361,4.411,4.411,0,0,1,2.557,3.957,4.219,4.219,0,0,1-.747,2.28c-.479.715-1.209,1.216-1.745,1.884a.739.739,0,0,0-.052.868c-.314.137-.652.212-.96.374a.41.41,0,0,0,0,.7,1.564,1.564,0,0,0,1.875-.573,2.715,2.715,0,0,0,.217-.306,3.269,3.269,0,0,0,1.473-.771,1.558,1.558,0,0,1,.228,2.42,3.208,3.208,0,0,1-1.387.878l-.062.023a2.581,2.581,0,0,0-1.289.68,8.467,8.467,0,0,0-.738-1.258,5.107,5.107,0,0,0-4.369-2.488,3.3,3.3,0,0,0-2.965,2.563c-.022.1.136.186.183.077.686-1.6,2.859-1.66,4.154-.826a6.922,6.922,0,0,1,2.688,4.555,5.73,5.73,0,0,1-1.131,5.053,3.42,3.42,0,0,1-1.964.99,2.979,2.979,0,0,1-1.024-.069l-.229-.047a1.629,1.629,0,0,0-.482-.045l-.248.034h0l-.141.066c-.123.055-.111.04.033-.046a.6.6,0,0,0-.661.618.162.162,0,0,0-.038.031c-1.6,1.956-2.783,4.2-4.479,6.1l-.5.554a13.836,13.836,0,0,1-4.465,3.7l-.206.086c-.5.213-1.011.5-1.075,1.113a1.055,1.055,0,0,0,.866,1.082c1.127.289,2.412-.713,3.237-1.37a21.417,21.417,0,0,0,4.5-5.109l.122-.189a14.258,14.258,0,0,0,2.26-5.264l.053.086.009.013a1.3,1.3,0,0,0,.2.218,1.8,1.8,0,0,0,.723.354,4.309,4.309,0,0,0,1.54.108,5.416,5.416,0,0,0,2.8-1.135c2.477-1.943,2.769-5.559,1.767-8.493a3.233,3.233,0,0,0,2.4-.831,3.589,3.589,0,0,0,1.488-2.253,2.489,2.489,0,0,0-1.307-2.485,6.855,6.855,0,0,0,1.477-3.84,6.173,6.173,0,0,0-2.781-5.318,16.113,16.113,0,0,0,.85-11.307C118.329,55.46,111,51.325,103.977,49.512Zm6.236,56.181-.02-.065c-.174-.572-.4-1.71-1.254-1.276-.816.414-.3,1.638-.01,2.234a2.471,2.471,0,0,0,1.723,1.438,1.929,1.929,0,0,0,1.8-.533,1.682,1.682,0,0,0,.283-.48.689.689,0,0,0,.05-.145.32.32,0,0,0,.082.141,7.281,7.281,0,0,1,.96,1.316c.062.11.256.033.207-.088-.3-.744-.253-1.893-.93-2.431-.6-.474-1.158-.1-1.474.451l-.016.029C111.155,107.122,110.419,106.326,110.212,105.694Zm6.494-2.686-.062-.087c-.638-.873-1.715-1.922-2.792-1.111a.558.558,0,0,0,0,.945l.134.1a5.141,5.141,0,0,1,1.285,1.128,7.156,7.156,0,0,0,1.218,1.479,2.221,2.221,0,0,0,3.111-.108l.076-.1a3.009,3.009,0,0,0,.2-.284l.047.065.013.019.011.016a4.075,4.075,0,0,0,1.222,1.26,3.545,3.545,0,0,0,3.1.383.094.094,0,0,0-.025-.184,3.865,3.865,0,0,1-3.04-2.195l-.059-.131a1.765,1.765,0,0,0-.965-1.089,1.292,1.292,0,0,0-1.382.393c-.29.319-.364.955-.887.815C117.341,104.166,117.019,103.449,116.706,103.008Zm3.656-7.763a.55.55,0,0,0-.8.327,2.82,2.82,0,0,0,2.521,3.115,2.067,2.067,0,0,0,1.032-.245c.249-.13.544-.462.817-.517.353-.071.666.4.914.641a9.3,9.3,0,0,0,.959.833.2.2,0,0,0,.294-.226l-.117-.311c-.423-1.109-1.152-2.729-2.515-2.269-.668.226-1.171.986-1.875.384C121.026,96.5,120.973,95.709,120.363,95.245Zm-6.017-5.677c-1.271-1.46-4.26-.689-4.826,1.087a1.2,1.2,0,0,0,.311,1.179,1.234,1.234,0,0,0,1.469.189c.422-.247.594-.65.9-1a3.724,3.724,0,0,1,1.71-.992,1.827,1.827,0,0,1,.44.327c.068.068.2-.026.136-.105a1.819,1.819,0,0,0-.3-.306l.055-.016h0A.223.223,0,0,0,114.346,89.568ZM106.084,73.45a.585.585,0,0,0-.58.581l.011.087a1.338,1.338,0,0,0,.868,1.208,4.789,4.789,0,0,0,1.59.415,3.976,3.976,0,0,0,.655,0l.048.273a11.782,11.782,0,0,1,.2,1.649,6.245,6.245,0,0,1-.767,2.8,5.976,5.976,0,0,0-.019,5.3.868.868,0,0,0,.772.443.912.912,0,0,0,.772-.443.882.882,0,0,0,.015-.874l-.015-.029a3.913,3.913,0,0,1-.35-2.721c.209-.871.681-1.653.893-2.521a5.391,5.391,0,0,0-.738-4.029,2.657,2.657,0,0,0,1.373-.856h0c.127-.136.058-.42-.166-.4l-.252.02a5.778,5.778,0,0,1-2.118-.078,3.621,3.621,0,0,1-1.019-.484l-.069-.045A1.615,1.615,0,0,0,106.084,73.45ZM104.355,63a4.392,4.392,0,0,0-4.108,2.684,6.649,6.649,0,0,0,.247,5.41l.2.476a4.836,4.836,0,0,0,1.563,2.247c.824.5,1.536-.079,1.293-1a4.668,4.668,0,0,0-.854-1.416,12.617,12.617,0,0,1-.814-1.309,6.214,6.214,0,0,1-.824-2.9c.006-1.861,1.235-3.994,3.294-3.967A.114.114,0,0,0,104.355,63ZM95.2,60c.112-.086.012-.276-.115-.2A9.187,9.187,0,0,0,91.1,66.112,7.566,7.566,0,0,0,91.64,70.2a2.752,2.752,0,0,0,1.709,1.614,1.448,1.448,0,0,0,1.725-.958.658.658,0,0,0-.294-.724,4.373,4.373,0,0,1-1.7-1.957,7.1,7.1,0,0,1-.517-2.738A6.547,6.547,0,0,1,95.2,60Zm-25.65.955a.127.127,0,0,0-.154-.2,5.469,5.469,0,0,0-2.759,4A6,6,0,0,0,68,69.817c.716.67,2-.221,1.4-1.084a7.3,7.3,0,0,1-1.114-1.828,5.784,5.784,0,0,1-.278-1.962A6.1,6.1,0,0,1,69.546,60.952ZM88.106,58.9c-2.593-.124-4.166,2.838-4.525,5.046a5.6,5.6,0,0,0,.7,3.952l.044.069c.621.945,1.75,2.033,2.967,1.586a.705.705,0,0,0,.306-1.16c-.529-.641-1.347-.9-1.845-1.587a4.235,4.235,0,0,1-.709-2.662l0-.1c.087-1.717.905-5.012,3.06-4.954C88.228,59.088,88.226,58.9,88.106,58.9Zm-8.112-.492c-2.509-.321-4.036,2.632-4.508,4.665a7.885,7.885,0,0,0,.018,3.952l.028.09c.306.942,1.21,2.556,2.391,2.074.323-.132.653-.491.5-.878-.2-.495-.483-.623-.863-.94a2.514,2.514,0,0,1-.648-.939,6.65,6.65,0,0,1-.436-2.983l.007-.117c.142-1.934,1.19-4.817,3.512-4.764C80.1,58.569,80.093,58.419,79.994,58.406ZM75.4,55.631c-1.4-.532-2.54.8-3.342,1.757a12.755,12.755,0,0,0-2.433,3.968A6.731,6.731,0,0,0,69.5,65.5a5.51,5.51,0,0,0,.959,1.832l.056.069a1.457,1.457,0,0,0,1.634.695.553.553,0,0,0,.377-.665c-.112-.61-.426-.769-.833-1.195a3.832,3.832,0,0,1-.8-1.325,5.389,5.389,0,0,1-.14-3.125A10.852,10.852,0,0,1,72.2,58.559l.136-.215c.67-1.059,1.624-2.689,3.037-2.518C75.5,55.842,75.5,55.667,75.4,55.631Z" transform="translate(-44.019 -48.399)"/>
  <path id="Path_13" data-name="Path 13" class="cls-2" d="M131.84,110.657a1.2,1.2,0,0,0-2.168.284c-.452,2.038,1.977,3.92,3.822,3.967s3.89-1.515,3.625-3.487c-.065-.488-.717-.428-.938-.123l-.086.117c-.6.81-1.4,1.649-2.518,1.452a1.916,1.916,0,0,1-1.165-.745C132.073,111.672,132.11,111.135,131.84,110.657ZM143.5,95.749a1.089,1.089,0,0,0-.719.052,1.416,1.416,0,0,0-1.047.968c-.011.041-.024.081-.038.121l-.022.059.059-.15c-.028.148-.148.3-.191.451a1.621,1.621,0,0,0-.048.59c-.156,0-.313.007-.469.02l-.15.014a2.886,2.886,0,0,0-2.268.95.838.838,0,0,0,.5,1.225c.794.122,1.478-.318,2.269-.406a7.905,7.905,0,0,1,2.268.1c1.524.279,2.924.9,4.409,1.285l.2.051h0c.254.061.543-.292.292-.5a13.166,13.166,0,0,0-4.213-2.253,1.341,1.341,0,0,0,.137-1.179c-.023-.077-.052-.153-.082-.228l-.063-.154h0a1.174,1.174,0,0,0-.04-.215l0-.021h0A1.165,1.165,0,0,0,143.5,95.749Zm-15.177.056a.83.83,0,0,0-1.122-.021l-.045.035h0a2.142,2.142,0,0,0-1.064,1.674,2.76,2.76,0,0,0-2.12.875.819.819,0,0,0-.212.8l.061.166h0c.195.525,1.068.828,1.364.21l.013-.03c.315-.734,1.526-.657,2.168-.582a8.247,8.247,0,0,1,1.324.289c.152.044.3.092.455.14l.151.049c.081.026.5.254.239.2-.07-.015-.123.088-.051.122a.462.462,0,0,0,.622-.482c-.036-.58-.957-.9-1.4-1.1l-.027-.012c-.17-.078-.348-.154-.531-.224a2.571,2.571,0,0,0,.259-.508,2.219,2.219,0,0,0,.137-.525.511.511,0,0,0,0-.27l0-.026h0a.872.872,0,0,0,.018-.183l0-.024h0A.88.88,0,0,0,128.321,95.8Zm5.2,6.179c-1.25.387-3.312,1.439-2.661,3.064.909,1.492,3.322.4,4.49-.086a.836.836,0,0,1,.582,1.568c-8.39,3.32-8.36-5.443-2.716-5.315C133.837,101.229,133.856,101.856,133.52,101.984Zm11.1-11.427-.213-.062c-1.108-.321-2.239-.875-3.223-.01a1.22,1.22,0,0,0-.19,1.469c.63.965,1.563.818,2.581.9a8.142,8.142,0,0,1,3.915,1.5c.508.359.855.92,1.376,1.243a.331.331,0,0,0,.48-.2,2.743,2.743,0,0,0-.515-2.11,5.4,5.4,0,0,0-1.762-1.726,9.508,9.508,0,0,0-2.45-1.008Zm-16.143-.733a5.872,5.872,0,0,0-4.722,2.569,1.17,1.17,0,0,0,.416,1.587,1.188,1.188,0,0,0,1.563-.387l.023-.029a5.825,5.825,0,0,1,2.292-1.841,6.069,6.069,0,0,1,1.428-.445l.156-.027a2.174,2.174,0,0,1,.672-.038.766.766,0,0,1,.294.1.122.122,0,0,0,.171.152c.465-.256.408-.712.024-1.066A3.724,3.724,0,0,0,128.478,89.824Z" transform="translate(-96.842 -61.92)"/>
</svg>
