<svg xmlns="http://www.w3.org/2000/svg" width="21.16" height="26.15" viewBox="0 0 21.16 26.15">
  <defs>
    <style>
      .cls-1 {
        fill: #fff;
      }
    </style>
  </defs>
  <g id="Icon_ionic-ios-copy" data-name="Icon ionic-ios-copy" transform="translate(-4.5 -1.125)">
    <path id="Path_6" data-name="Path 6" class="cls-1" d="M24.46,6.52h4.959a.33.33,0,0,0,.331-.327h0a1.514,1.514,0,0,0-.551-1.16l-4.249-3.5a2.076,2.076,0,0,0-1.135-.4h0a.4.4,0,0,0-.408.4v3.95A1.049,1.049,0,0,0,24.46,6.52Z" transform="translate(-4.089 -0.002)"/>
    <path id="Path_7" data-name="Path 7" class="cls-1" d="M19.107,5.483V1.125H11.888a1.759,1.759,0,0,0-1.763,1.743V21.173a1.759,1.759,0,0,0,1.763,1.743H25.114a1.759,1.759,0,0,0,1.763-1.743V7.935h-5.29A2.469,2.469,0,0,1,19.107,5.483Z" transform="translate(-1.217)"/>
    <path id="Path_8" data-name="Path 8" class="cls-1" d="M7.365,23.712V5.625h-1.1A1.759,1.759,0,0,0,4.5,7.368V26.545a1.759,1.759,0,0,0,1.763,1.743H20.37a1.759,1.759,0,0,0,1.763-1.743v-1.09h-13A1.759,1.759,0,0,1,7.365,23.712Z" transform="translate(0 -1.013)"/>
  </g>
</svg>
