<svg xmlns="http://www.w3.org/2000/svg" version="1.1" xlink="http://www.w3.org/1999/xlink" xmlns:svgjs="http://svgjs.com/svgjs" width="300" height="61.63099055897404"><defs id="SvgjsDefs25224"/><g id="SvgjsG25225" transform="scale(0.25809115779693387)" opacity="1"><g id="SvgjsG25226" class="z4Ezmt_sky" transform="translate(239.23875661571006, -261.15772307542954) scale(6.838477926181914)" light-content="false" non-strokable="false" fill="#ecb709"><path d="M91.964 46.369l-2.147.156-2.112-1.17-1.422-.903a.476.476 0 0 0-.278-.077l-27.111.614-7.788-5.517-.996-1.116a.491.491 0 0 0-.483-.153l-19.384 4.45-15.102 4.822a.488.488 0 0 0-.14.077c-.007.005-.017.006-.024.012l-5.983 4.908c-.016.013-.018.036-.032.051-.029.031-.066.054-.087.092l-1.309 2.338c-.006.007-.003.017-.008.026-.004.008-.013.012-.016.02-.014.032-.007.067-.013.1-.01.047-.023.091-.018.139.004.042.023.08.037.12.012.035.012.073.032.105.006.01.017.013.024.023.006.008.005.019.012.027l5.05 6.117a.5.5 0 0 0 .384.181h50.742a.512.512 0 0 0 .208-.045l26.312-12.097c.005-.002.008-.006.013-.009.016-.008.029-.021.044-.031a.523.523 0 0 0 .106-.087c.005-.006.012-.008.017-.014l1.896-2.35a.498.498 0 0 0-.424-.809zm-44.221 3.204L15.481 51.91l1.173-1.087 70.67-4.541.675.374-40.256 2.917zm-4.035-7.604l5.141 3.601-13.414.785-1.969-2.047 10.242-2.339zm6.745 3.507l-5.435-3.807 5.645-1.29 6.63 4.696-6.84.401zm-19.948-1.864l19.057-4.373.275.308-23.18 5.295 3.848-1.23zm-14.988 4.797l16.816-3.842 2.544 2.644a.497.497 0 0 0 .359.152l.029-.001 23.488-1.375 27.123-.614.004.002-69.467 4.465a.495.495 0 0 0-.307.132l-2.215 2.054-3.053.221 4.679-3.838zm48.167 12.405H13.285l-4.286-5.192 35.134-2.559 43.263-3.15-23.712 10.901zm26.169-12.08L8.887 54.631l.726-1.296 22.293-1.615 58.987-4.274-1.04 1.288z"/></g><g id="SvgjsG25227" class="text" transform="translate(581.28, 210.97543601980084) scale(1)" light-content="false" fill="#030303"><path d="M-581.28 -3.18L-581.28 0L-567 0L-567 -3.18L-571.68 -3.18L-571.68 -30.6L-563.46 -30.6C-561.3 -30.6 -559.67 -30.07 -558.57 -29.01C-557.47 -27.95 -556.92 -26.58 -556.92 -24.9C-556.92 -23.18 -557.48 -21.73 -558.6 -20.55C-559.72 -19.37 -561.62 -18.78 -564.3 -18.78L-569.58 -18.78L-569.58 -15.48L-565.44 -15.48L-556.38 0L-548.04 0L-548.04 -3.18L-553.02 -3.18L-560.76 -15.96C-554.96 -16.84 -552.06 -19.84 -552.06 -24.96C-552.06 -27.84 -553.07 -30.03 -555.09 -31.53C-557.11 -33.03 -559.92 -33.78 -563.52 -33.78L-581.28 -33.78L-581.28 -30.6L-576.6 -30.6L-576.6 -3.18Z M-544.14 0L-514.44 0L-514.44 -10.2L-518.22 -10.2L-518.22 -3.18L-534.54 -3.18L-534.54 -15.84L-524.04 -15.84L-524.04 -11.82L-521.58 -11.82L-521.58 -23.1L-524.04 -23.1L-524.04 -19.14L-534.54 -19.14L-534.54 -30.6L-518.52 -30.6L-518.52 -23.76L-514.74 -23.76L-514.74 -33.78L-544.14 -33.78L-544.14 -30.6L-539.46 -30.6L-539.46 -3.18L-544.14 -3.18Z M-509.88 0L-496.56 0L-496.56 -3.18L-501.06 -3.18L-497.7 -13.02L-485.46 -13.02L-482.04 -3.18L-486.54 -3.18L-486.54 0L-472.8 0L-472.8 -3.18L-476.88 -3.18L-486.96 -30.6L-483.06 -30.6L-483.06 -33.78L-499.56 -33.78L-499.56 -30.6L-495.78 -30.6L-505.56 -3.18L-509.88 -3.18ZM-496.74 -16.2L-491.7 -30.54L-491.34 -30.54L-486.42 -16.2Z M-468.72 0L-441.12 0L-441.12 -13.56L-445.08 -13.56L-445.08 -3.18L-459.12 -3.18L-459.12 -30.6L-454.44 -30.6L-454.44 -33.78L-468.72 -33.78L-468.72 -30.6L-464.04 -30.6L-464.04 -3.18L-468.72 -3.18Z M-437.22 0L-409.62 0L-409.62 -13.56L-413.58 -13.56L-413.58 -3.18L-427.62 -3.18L-427.62 -30.6L-422.94 -30.6L-422.94 -33.78L-437.22 -33.78L-437.22 -30.6L-432.54 -30.6L-432.54 -3.18L-437.22 -3.18Z M-396.36 0L-381.6 0L-381.6 -3.18L-386.58 -3.18L-386.58 -14.52L-375.6 -30.6L-370.98 -30.6L-370.98 -33.78L-384.3 -33.78L-384.3 -30.6L-379.98 -30.6L-388.56 -17.64L-397.44 -30.6L-393.18 -30.6L-393.18 -33.78L-407.22 -33.78L-407.22 -30.6L-402.72 -30.6L-391.44 -14.46L-391.44 -3.18L-396.36 -3.18Z M-366.9 -12.36L-352.56 -12.36L-352.56 -15.72L-366.9 -15.72Z M-346.98 0L-332.7 0L-332.7 -3.18L-337.38 -3.18L-337.38 -15.84L-327.18 -15.84L-327.18 -11.94L-324.66 -11.94L-324.66 -22.92L-327.18 -22.92L-327.18 -19.26L-337.38 -19.26L-337.38 -30.6L-321.9 -30.6L-321.9 -23.52L-318.12 -23.52L-318.12 -33.78L-346.98 -33.78L-346.98 -30.6L-342.3 -30.6L-342.3 -3.18L-346.98 -3.18Z M-315.12 0L-301.8 0L-301.8 -3.18L-306.3 -3.18L-302.94 -13.02L-290.7 -13.02L-287.28 -3.18L-291.78 -3.18L-291.78 0L-278.04 0L-278.04 -3.18L-282.12 -3.18L-292.2 -30.6L-288.3 -30.6L-288.3 -33.78L-304.8 -33.78L-304.8 -30.6L-301.02 -30.6L-310.8 -3.18L-315.12 -3.18ZM-301.98 -16.2L-296.94 -30.54L-296.58 -30.54L-291.66 -16.2Z M-250.23 -16.17C-252.05 -17.63 -255.04 -18.72 -259.2 -19.44L-260.58 -19.68C-263.02 -20.12 -264.84 -20.81 -266.04 -21.75C-267.24 -22.69 -267.84 -24 -267.84 -25.68C-267.84 -27.28 -267.27 -28.56 -266.13 -29.52C-264.99 -30.48 -263.4 -30.96 -261.36 -30.96C-256.32 -30.96 -253.42 -28.72 -252.66 -24.24L-249.12 -24.24L-249.12 -33.78L-252.96 -33.78L-252.96 -30.84C-253.88 -32 -255.09 -32.89 -256.59 -33.51C-258.09 -34.13 -259.76 -34.44 -261.6 -34.44C-264.84 -34.44 -267.42 -33.63 -269.34 -32.01C-271.26 -30.39 -272.22 -28.12 -272.22 -25.2C-272.22 -22.44 -271.28 -20.25 -269.4 -18.63C-267.52 -17.01 -264.88 -15.92 -261.48 -15.36L-260.04 -15.12C-257.92 -14.76 -256.29 -14.35 -255.15 -13.89C-254.01 -13.43 -253.18 -12.79 -252.66 -11.97C-252.14 -11.15 -251.88 -10.02 -251.88 -8.58C-251.88 -6.78 -252.46 -5.38 -253.62 -4.38C-254.78 -3.38 -256.4 -2.88 -258.48 -2.88C-261.32 -2.88 -263.63 -3.67 -265.41 -5.25C-267.19 -6.83 -268.2 -8.88 -268.44 -11.4L-272.04 -11.4L-272.04 0L-268.14 0L-268.14 -4.14C-267.06 -2.66 -265.67 -1.5 -263.97 -0.66C-262.27 0.18 -260.38 0.6 -258.3 0.6C-256.06 0.6 -254.12 0.15 -252.48 -0.75C-250.84 -1.65 -249.6 -2.85 -248.76 -4.35C-247.92 -5.85 -247.5 -7.5 -247.5 -9.3C-247.5 -12.42 -248.41 -14.71 -250.23 -16.17Z M-235.26 0L-221.04 0L-221.04 -3.18L-225.72 -3.18L-225.72 -30.6L-216.66 -30.6L-216.66 -22.02L-213 -22.02L-213 -33.78L-243.48 -33.78L-243.48 -22.02L-239.82 -22.02L-239.82 -30.6L-230.58 -30.6L-230.58 -3.18L-235.26 -3.18Z M-167.07 -16.17C-168.89 -17.63 -171.88 -18.72 -176.04 -19.44L-177.42 -19.68C-179.86 -20.12 -181.68 -20.81 -182.88 -21.75C-184.08 -22.69 -184.68 -24 -184.68 -25.68C-184.68 -27.28 -184.11 -28.56 -182.97 -29.52C-181.83 -30.48 -180.24 -30.96 -178.2 -30.96C-173.16 -30.96 -170.26 -28.72 -169.5 -24.24L-165.96 -24.24L-165.96 -33.78L-169.8 -33.78L-169.8 -30.84C-170.72 -32 -171.93 -32.89 -173.43 -33.51C-174.93 -34.13 -176.6 -34.44 -178.44 -34.44C-181.68 -34.44 -184.26 -33.63 -186.18 -32.01C-188.1 -30.39 -189.06 -28.12 -189.06 -25.2C-189.06 -22.44 -188.12 -20.25 -186.24 -18.63C-184.36 -17.01 -181.72 -15.92 -178.32 -15.36L-176.88 -15.12C-174.76 -14.76 -173.13 -14.35 -171.99 -13.89C-170.85 -13.43 -170.02 -12.79 -169.5 -11.97C-168.98 -11.15 -168.72 -10.02 -168.72 -8.58C-168.72 -6.78 -169.3 -5.38 -170.46 -4.38C-171.62 -3.38 -173.24 -2.88 -175.32 -2.88C-178.16 -2.88 -180.47 -3.67 -182.25 -5.25C-184.03 -6.83 -185.04 -8.88 -185.28 -11.4L-188.88 -11.4L-188.88 0L-184.98 0L-184.98 -4.14C-183.9 -2.66 -182.51 -1.5 -180.81 -0.66C-179.11 0.18 -177.22 0.6 -175.14 0.6C-172.9 0.6 -170.96 0.15 -169.32 -0.75C-167.68 -1.65 -166.44 -2.85 -165.6 -4.35C-164.76 -5.85 -164.34 -7.5 -164.34 -9.3C-164.34 -12.42 -165.25 -14.71 -167.07 -16.17Z M-159.48 -3.18L-159.48 0L-145.2 0L-145.2 -3.18L-149.88 -3.18L-149.88 -30.6L-142.26 -30.6C-139.98 -30.6 -138.23 -30.04 -137.01 -28.92C-135.79 -27.8 -135.18 -26.2 -135.18 -24.12C-135.18 -21.88 -135.88 -20.16 -137.28 -18.96C-138.68 -17.76 -140.68 -17.16 -143.28 -17.16L-147.6 -17.16L-147.6 -13.98L-143.1 -13.98C-138.9 -13.98 -135.69 -14.85 -133.47 -16.59C-131.25 -18.33 -130.14 -20.86 -130.14 -24.18C-130.14 -27.3 -131.22 -29.68 -133.38 -31.32C-135.54 -32.96 -138.68 -33.78 -142.8 -33.78L-159.48 -33.78L-159.48 -30.6L-154.8 -30.6L-154.8 -3.18Z M-125.7 0L-96 0L-96 -10.2L-99.78 -10.2L-99.78 -3.18L-116.1 -3.18L-116.1 -15.84L-105.6 -15.84L-105.6 -11.82L-103.14 -11.82L-103.14 -23.1L-105.6 -23.1L-105.6 -19.14L-116.1 -19.14L-116.1 -30.6L-100.08 -30.6L-100.08 -23.76L-96.3 -23.76L-96.3 -33.78L-125.7 -33.78L-125.7 -30.6L-121.02 -30.6L-121.02 -3.18L-125.7 -3.18Z M-90.78 0L-61.08 0L-61.08 -10.2L-64.86 -10.2L-64.86 -3.18L-81.18 -3.18L-81.18 -15.84L-70.68 -15.84L-70.68 -11.82L-68.22 -11.82L-68.22 -23.1L-70.68 -23.1L-70.68 -19.14L-81.18 -19.14L-81.18 -30.6L-65.16 -30.6L-65.16 -23.76L-61.38 -23.76L-61.38 -33.78L-90.78 -33.78L-90.78 -30.6L-86.1 -30.6L-86.1 -3.18L-90.78 -3.18Z M-55.8 -3.18L-55.8 0L-37.38 0C-33.62 0 -30.45 -0.73 -27.87 -2.19C-25.29 -3.65 -23.35 -5.68 -22.05 -8.28C-20.75 -10.88 -20.1 -13.86 -20.1 -17.22C-20.1 -20.06 -20.75 -22.75 -22.05 -25.29C-23.35 -27.83 -25.31 -29.88 -27.93 -31.44C-30.55 -33 -33.72 -33.78 -37.44 -33.78L-55.8 -33.78L-55.8 -30.6L-51.12 -30.6L-51.12 -3.18ZM-37.86 -3.18L-46.2 -3.18L-46.2 -30.6L-37.68 -30.6C-34.92 -30.6 -32.6 -29.97 -30.72 -28.71C-28.84 -27.45 -27.44 -25.8 -26.52 -23.76C-25.6 -21.72 -25.14 -19.5 -25.14 -17.1C-25.14 -12.94 -26.19 -9.58 -28.29 -7.02C-30.39 -4.46 -33.58 -3.18 -37.86 -3.18Z M3.48 -3.18L3.48 0L21.48 0C25.64 0 28.7 -0.91 30.66 -2.73C32.62 -4.55 33.6 -6.82 33.6 -9.54C33.6 -11.62 33.01 -13.41 31.83 -14.91C30.65 -16.41 28.94 -17.44 26.7 -18C28.26 -18.52 29.5 -19.42 30.42 -20.7C31.34 -21.98 31.8 -23.54 31.8 -25.38C31.8 -28.14 30.81 -30.23 28.83 -31.65C26.85 -33.07 23.98 -33.78 20.22 -33.78L3.48 -33.78L3.48 -30.6L8.16 -30.6L8.16 -3.18ZM19.92 -19.38L13.08 -19.38L13.08 -30.6L18.84 -30.6C21.72 -30.6 23.79 -30.19 25.05 -29.37C26.31 -28.55 26.94 -27.16 26.94 -25.2C26.94 -21.32 24.6 -19.38 19.92 -19.38ZM20.64 -3.18L13.08 -3.18L13.08 -16.08L20.46 -16.08C23.18 -16.08 25.22 -15.51 26.58 -14.37C27.94 -13.23 28.62 -11.68 28.62 -9.72C28.62 -5.36 25.96 -3.18 20.64 -3.18Z M47.61 -1.71C50.39 -0.13 53.58 0.66 57.18 0.66C60.78 0.66 63.97 -0.13 66.75 -1.71C69.53 -3.29 71.68 -5.41 73.2 -8.07C74.72 -10.73 75.48 -13.64 75.48 -16.8C75.48 -19.96 74.72 -22.89 73.2 -25.59C71.68 -28.29 69.53 -30.43 66.75 -32.01C63.97 -33.59 60.78 -34.38 57.18 -34.38C53.58 -34.38 50.39 -33.59 47.61 -32.01C44.83 -30.43 42.68 -28.29 41.16 -25.59C39.64 -22.89 38.88 -19.96 38.88 -16.8C38.88 -13.64 39.64 -10.73 41.16 -8.07C42.68 -5.41 44.83 -3.29 47.61 -1.71ZM64.14 -4.8C62.18 -3.56 59.86 -2.94 57.18 -2.94C54.5 -2.94 52.18 -3.55 50.22 -4.77C48.26 -5.99 46.76 -7.64 45.72 -9.72C44.68 -11.8 44.16 -14.14 44.16 -16.74C44.16 -19.34 44.68 -21.71 45.72 -23.85C46.76 -25.99 48.26 -27.69 50.22 -28.95C52.18 -30.21 54.5 -30.84 57.18 -30.84C59.86 -30.84 62.18 -30.21 64.14 -28.95C66.1 -27.69 67.61 -26 68.67 -23.88C69.73 -21.76 70.26 -19.4 70.26 -16.8C70.26 -14.24 69.73 -11.91 68.67 -9.81C67.61 -7.71 66.1 -6.04 64.14 -4.8Z M80.16 0L93.48 0L93.48 -3.18L88.98 -3.18L92.34 -13.02L104.58 -13.02L108 -3.18L103.5 -3.18L103.5 0L117.24 0L117.24 -3.18L113.16 -3.18L103.08 -30.6L106.98 -30.6L106.98 -33.78L90.48 -33.78L90.48 -30.6L94.26 -30.6L84.48 -3.18L80.16 -3.18ZM93.3 -16.2L98.34 -30.54L98.7 -30.54L103.62 -16.2Z M128.7 0L142.92 0L142.92 -3.18L138.24 -3.18L138.24 -30.6L147.3 -30.6L147.3 -22.02L150.96 -22.02L150.96 -33.78L120.48 -33.78L120.48 -22.02L124.14 -22.02L124.14 -30.6L133.38 -30.6L133.38 -3.18L128.7 -3.18Z M186 0L190.2 0L198.6 -25.56L207.06 0L211.26 0L220.56 -30.6L224.76 -30.6L224.76 -33.78L212.16 -33.78L212.16 -30.6L216.54 -30.6L209.4 -6.24L200.64 -33.18L197.1 -33.18L188.4 -6.24L181.08 -30.6L185.46 -30.6L185.46 -33.78L172.26 -33.78L172.26 -30.6L176.4 -30.6Z M228.48 0L242.76 0L242.76 -3.18L238.08 -3.18L238.08 -15.66L256.08 -15.66L256.08 -3.18L251.34 -3.18L251.34 0L265.62 0L265.62 -3.18L260.94 -3.18L260.94 -30.6L265.62 -30.6L265.62 -33.78L251.34 -33.78L251.34 -30.6L256.08 -30.6L256.08 -19.08L238.08 -19.08L238.08 -30.6L242.76 -30.6L242.76 -33.78L228.48 -33.78L228.48 -30.6L233.16 -30.6L233.16 -3.18L228.48 -3.18Z M279.63 -1.71C282.41 -0.13 285.6 0.66 289.2 0.66C292.8 0.66 295.99 -0.13 298.77 -1.71C301.55 -3.29 303.7 -5.41 305.22 -8.07C306.74 -10.73 307.5 -13.64 307.5 -16.8C307.5 -19.96 306.74 -22.89 305.22 -25.59C303.7 -28.29 301.55 -30.43 298.77 -32.01C295.99 -33.59 292.8 -34.38 289.2 -34.38C285.6 -34.38 282.41 -33.59 279.63 -32.01C276.85 -30.43 274.7 -28.29 273.18 -25.59C271.66 -22.89 270.9 -19.96 270.9 -16.8C270.9 -13.64 271.66 -10.73 273.18 -8.07C274.7 -5.41 276.85 -3.29 279.63 -1.71ZM296.16 -4.8C294.2 -3.56 291.88 -2.94 289.2 -2.94C286.52 -2.94 284.2 -3.55 282.24 -4.77C280.28 -5.99 278.78 -7.64 277.74 -9.72C276.7 -11.8 276.18 -14.14 276.18 -16.74C276.18 -19.34 276.7 -21.71 277.74 -23.85C278.78 -25.99 280.28 -27.69 282.24 -28.95C284.2 -30.21 286.52 -30.84 289.2 -30.84C291.88 -30.84 294.2 -30.21 296.16 -28.95C298.12 -27.69 299.63 -26 300.69 -23.88C301.75 -21.76 302.28 -19.4 302.28 -16.8C302.28 -14.24 301.75 -11.91 300.69 -9.81C299.63 -7.71 298.12 -6.04 296.16 -4.8Z M312.84 0L340.44 0L340.44 -13.56L336.48 -13.56L336.48 -3.18L322.44 -3.18L322.44 -30.6L327.12 -30.6L327.12 -33.78L312.84 -33.78L312.84 -30.6L317.52 -30.6L317.52 -3.18L312.84 -3.18Z M344.34 0L374.04 0L374.04 -10.2L370.26 -10.2L370.26 -3.18L353.94 -3.18L353.94 -15.84L364.44 -15.84L364.44 -11.82L366.9 -11.82L366.9 -23.1L364.44 -23.1L364.44 -19.14L353.94 -19.14L353.94 -30.6L369.96 -30.6L369.96 -23.76L373.74 -23.76L373.74 -33.78L344.34 -33.78L344.34 -30.6L349.02 -30.6L349.02 -3.18L344.34 -3.18Z M402.99 -16.17C401.17 -17.63 398.18 -18.72 394.02 -19.44L392.64 -19.68C390.2 -20.12 388.38 -20.81 387.18 -21.75C385.98 -22.69 385.38 -24 385.38 -25.68C385.38 -27.28 385.95 -28.56 387.09 -29.52C388.23 -30.48 389.82 -30.96 391.86 -30.96C396.9 -30.96 399.8 -28.72 400.56 -24.24L404.1 -24.24L404.1 -33.78L400.26 -33.78L400.26 -30.84C399.34 -32 398.13 -32.89 396.63 -33.51C395.13 -34.13 393.46 -34.44 391.62 -34.44C388.38 -34.44 385.8 -33.63 383.88 -32.01C381.96 -30.39 381 -28.12 381 -25.2C381 -22.44 381.94 -20.25 383.82 -18.63C385.7 -17.01 388.34 -15.92 391.74 -15.36L393.18 -15.12C395.3 -14.76 396.93 -14.35 398.07 -13.89C399.21 -13.43 400.04 -12.79 400.56 -11.97C401.08 -11.15 401.34 -10.02 401.34 -8.58C401.34 -6.78 400.76 -5.38 399.6 -4.38C398.44 -3.38 396.82 -2.88 394.74 -2.88C391.9 -2.88 389.59 -3.67 387.81 -5.25C386.03 -6.83 385.02 -8.88 384.78 -11.4L381.18 -11.4L381.18 0L385.08 0L385.08 -4.14C386.16 -2.66 387.55 -1.5 389.25 -0.66C390.95 0.18 392.84 0.6 394.92 0.6C397.16 0.6 399.1 0.15 400.74 -0.75C402.38 -1.65 403.62 -2.85 404.46 -4.35C405.3 -5.85 405.72 -7.5 405.72 -9.3C405.72 -12.42 404.81 -14.71 402.99 -16.17Z M409.92 0L423.24 0L423.24 -3.18L418.74 -3.18L422.1 -13.02L434.34 -13.02L437.76 -3.18L433.26 -3.18L433.26 0L447 0L447 -3.18L442.92 -3.18L432.84 -30.6L436.74 -30.6L436.74 -33.78L420.24 -33.78L420.24 -30.6L424.02 -30.6L414.24 -3.18L409.92 -3.18ZM423.06 -16.2L428.1 -30.54L428.46 -30.54L433.38 -16.2Z M451.08 0L478.68 0L478.68 -13.56L474.72 -13.56L474.72 -3.18L460.68 -3.18L460.68 -30.6L465.36 -30.6L465.36 -33.78L451.08 -33.78L451.08 -30.6L455.76 -30.6L455.76 -3.18L451.08 -3.18Z M482.58 0L512.28 0L512.28 -10.2L508.5 -10.2L508.5 -3.18L492.18 -3.18L492.18 -15.84L502.68 -15.84L502.68 -11.82L505.14 -11.82L505.14 -23.1L502.68 -23.1L502.68 -19.14L492.18 -19.14L492.18 -30.6L508.2 -30.6L508.2 -23.76L511.98 -23.76L511.98 -33.78L482.58 -33.78L482.58 -30.6L487.26 -30.6L487.26 -3.18L482.58 -3.18Z M517.5 -3.18L517.5 0L531.78 0L531.78 -3.18L527.1 -3.18L527.1 -30.6L535.32 -30.6C537.48 -30.6 539.11 -30.07 540.21 -29.01C541.31 -27.95 541.86 -26.58 541.86 -24.9C541.86 -23.18 541.3 -21.73 540.18 -20.55C539.06 -19.37 537.16 -18.78 534.48 -18.78L529.2 -18.78L529.2 -15.48L533.34 -15.48L542.4 0L550.74 0L550.74 -3.18L545.76 -3.18L538.02 -15.96C543.82 -16.84 546.72 -19.84 546.72 -24.96C546.72 -27.84 545.71 -30.03 543.69 -31.53C541.67 -33.03 538.86 -33.78 535.26 -33.78L517.5 -33.78L517.5 -30.6L522.18 -30.6L522.18 -3.18Z M578.37 -16.17C576.55 -17.63 573.56 -18.72 569.4 -19.44L568.02 -19.68C565.58 -20.12 563.76 -20.81 562.56 -21.75C561.36 -22.69 560.76 -24 560.76 -25.68C560.76 -27.28 561.33 -28.56 562.47 -29.52C563.61 -30.48 565.2 -30.96 567.24 -30.96C572.28 -30.96 575.18 -28.72 575.94 -24.24L579.48 -24.24L579.48 -33.78L575.64 -33.78L575.64 -30.84C574.72 -32 573.51 -32.89 572.01 -33.51C570.51 -34.13 568.84 -34.44 567 -34.44C563.76 -34.44 561.18 -33.63 559.26 -32.01C557.34 -30.39 556.38 -28.12 556.38 -25.2C556.38 -22.44 557.32 -20.25 559.2 -18.63C561.08 -17.01 563.72 -15.92 567.12 -15.36L568.56 -15.12C570.68 -14.76 572.31 -14.35 573.45 -13.89C574.59 -13.43 575.42 -12.79 575.94 -11.97C576.46 -11.15 576.72 -10.02 576.72 -8.58C576.72 -6.78 576.14 -5.38 574.98 -4.38C573.82 -3.38 572.2 -2.88 570.12 -2.88C567.28 -2.88 564.97 -3.67 563.19 -5.25C561.41 -6.83 560.4 -8.88 560.16 -11.4L556.56 -11.4L556.56 0L560.46 0L560.46 -4.14C561.54 -2.66 562.93 -1.5 564.63 -0.66C566.33 0.18 568.22 0.6 570.3 0.6C572.54 0.6 574.48 0.15 576.12 -0.75C577.76 -1.65 579 -2.85 579.84 -4.35C580.68 -5.85 581.1 -7.5 581.1 -9.3C581.1 -12.42 580.19 -14.71 578.37 -16.17Z"/></g><g id="SvgjsG25228" class="text" transform="translate(580.99, 235.09543601980084) scale(1)" light-content="false" fill="#ecb709"><path d="M-39.74 -3.51C-40.14 -3.84 -40.81 -4.1 -41.76 -4.3L-42.96 -4.56C-43.56 -4.69 -44 -4.86 -44.29 -5.06C-44.58 -5.26 -44.72 -5.57 -44.72 -5.98C-44.72 -6.43 -44.52 -6.79 -44.12 -7.04C-43.72 -7.29 -43.22 -7.42 -42.62 -7.42C-42.17 -7.42 -41.72 -7.33 -41.29 -7.15C-40.86 -6.97 -40.53 -6.75 -40.3 -6.48L-40.18 -5.26L-39.52 -5.26L-39.52 -7.88L-40.26 -7.88L-40.26 -7.2C-40.55 -7.47 -40.93 -7.68 -41.38 -7.83C-41.83 -7.98 -42.29 -8.06 -42.74 -8.06C-43.58 -8.06 -44.27 -7.88 -44.8 -7.51C-45.33 -7.14 -45.6 -6.63 -45.6 -5.96C-45.6 -5.32 -45.42 -4.85 -45.05 -4.55C-44.68 -4.25 -44.13 -4.01 -43.38 -3.84L-42.16 -3.58C-41.59 -3.45 -41.15 -3.32 -40.85 -3.21C-40.55 -3.1 -40.33 -2.94 -40.18 -2.74C-40.03 -2.54 -39.96 -2.26 -39.96 -1.9C-39.96 -1.45 -40.16 -1.09 -40.57 -0.82C-40.98 -0.55 -41.5 -0.42 -42.14 -0.42C-42.71 -0.42 -43.24 -0.51 -43.73 -0.7C-44.22 -0.89 -44.61 -1.15 -44.9 -1.5L-44.96 -2.46L-45.62 -2.46L-45.62 0L-44.9 0L-44.9 -0.78C-44.65 -0.49 -44.26 -0.25 -43.73 -0.06C-43.2 0.13 -42.65 0.22 -42.06 0.22C-41.25 0.22 -40.56 0.03 -39.99 -0.34C-39.42 -0.71 -39.14 -1.26 -39.14 -1.98C-39.14 -2.67 -39.34 -3.18 -39.74 -3.51Z M-37.58 0L-33.86 0L-33.86 -0.64L-35.26 -0.64L-35.26 -11.46L-37.54 -11.46L-37.54 -10.82L-36.12 -10.82L-36.12 -0.64L-37.58 -0.64Z M-30.83 -0.29C-30.2 0.06 -29.47 0.24 -28.66 0.24C-27.83 0.24 -27.1 0.06 -26.45 -0.29C-25.8 -0.64 -25.3 -1.14 -24.94 -1.78C-24.58 -2.42 -24.4 -3.15 -24.4 -3.98C-24.4 -4.78 -24.58 -5.49 -24.94 -6.11C-25.3 -6.73 -25.8 -7.21 -26.45 -7.56C-27.1 -7.91 -27.83 -8.08 -28.66 -8.08C-29.47 -8.08 -30.2 -7.91 -30.83 -7.56C-31.46 -7.21 -31.96 -6.73 -32.32 -6.1C-32.68 -5.47 -32.86 -4.76 -32.86 -3.96C-32.86 -3.15 -32.68 -2.42 -32.32 -1.78C-31.96 -1.14 -31.46 -0.64 -30.83 -0.29ZM-26.22 -1.42C-26.85 -0.77 -27.66 -0.44 -28.66 -0.44C-29.63 -0.44 -30.43 -0.77 -31.04 -1.42C-31.65 -2.07 -31.96 -2.92 -31.96 -3.96C-31.96 -4.99 -31.65 -5.82 -31.04 -6.45C-30.43 -7.08 -29.63 -7.4 -28.66 -7.4C-27.66 -7.4 -26.85 -7.08 -26.22 -6.45C-25.59 -5.82 -25.28 -4.99 -25.28 -3.98C-25.28 -2.93 -25.59 -2.07 -26.22 -1.42Z M-14.04 -7.86L-16.24 -7.86L-16.24 -6.98C-16.63 -7.3 -17.1 -7.56 -17.66 -7.75C-18.22 -7.94 -18.76 -8.04 -19.28 -8.04C-20.04 -8.04 -20.72 -7.88 -21.31 -7.55C-21.9 -7.22 -22.37 -6.75 -22.71 -6.14C-23.05 -5.53 -23.22 -4.82 -23.22 -4.02C-23.22 -3.21 -23.04 -2.49 -22.69 -1.88C-22.34 -1.27 -21.85 -0.79 -21.22 -0.45C-20.59 -0.11 -19.89 0.06 -19.12 0.06C-18.61 0.06 -18.1 -0.03 -17.58 -0.22C-17.06 -0.41 -16.61 -0.66 -16.24 -0.98L-16.24 0.3C-16.24 1.17 -16.49 1.84 -16.99 2.31C-17.49 2.78 -18.21 3.02 -19.16 3.02C-19.89 3.02 -20.79 2.87 -21.86 2.56L-22.02 3.24C-20.93 3.55 -19.97 3.7 -19.16 3.7C-17.97 3.7 -17.04 3.41 -16.37 2.83C-15.7 2.25 -15.36 1.36 -15.36 0.16L-15.36 -7.22L-14.04 -7.22ZM-21.39 -1.51C-22.01 -2.12 -22.32 -2.92 -22.32 -3.92C-22.32 -4.97 -22.03 -5.82 -21.46 -6.45C-20.89 -7.08 -20.13 -7.4 -19.2 -7.4C-18.71 -7.4 -18.2 -7.31 -17.67 -7.12C-17.14 -6.93 -16.67 -6.69 -16.24 -6.38L-16.24 -1.64C-16.61 -1.32 -17.05 -1.07 -17.55 -0.88C-18.05 -0.69 -18.53 -0.6 -19 -0.6C-19.97 -0.6 -20.77 -0.9 -21.39 -1.51Z M-5.36 -0.64L-6.58 -0.64L-6.58 -5.38C-6.58 -6.14 -6.83 -6.78 -7.32 -7.29C-7.81 -7.8 -8.58 -8.06 -9.62 -8.06C-10.06 -8.06 -10.54 -8 -11.07 -7.88C-11.6 -7.76 -12.1 -7.58 -12.58 -7.34L-12.32 -6.74C-11.88 -6.94 -11.42 -7.1 -10.94 -7.22C-10.46 -7.34 -10.01 -7.4 -9.6 -7.4C-8.93 -7.4 -8.41 -7.22 -8.02 -6.85C-7.63 -6.48 -7.44 -5.94 -7.44 -5.22L-7.44 -4.16C-8.61 -4.37 -9.51 -4.48 -10.12 -4.48C-10.97 -4.48 -11.67 -4.29 -12.2 -3.92C-12.73 -3.55 -13 -2.95 -13 -2.12C-13 -1.44 -12.76 -0.88 -12.27 -0.44C-11.78 0 -11.14 0.22 -10.34 0.22C-9.42 0.22 -8.44 -0.11 -7.4 -0.78L-7.28 0L-5.36 0ZM-11.67 -0.9C-12.01 -1.23 -12.18 -1.65 -12.18 -2.14C-12.18 -2.75 -11.98 -3.2 -11.59 -3.49C-11.2 -3.78 -10.69 -3.92 -10.08 -3.92C-9.25 -3.92 -8.37 -3.81 -7.44 -3.6L-7.44 -1.38C-8.01 -1.03 -8.52 -0.78 -8.95 -0.63C-9.38 -0.48 -9.82 -0.4 -10.26 -0.4C-10.86 -0.4 -11.33 -0.57 -11.67 -0.9Z M5.16 -0.64L3.68 -0.64L3.68 -5.58C3.68 -6.35 3.45 -6.96 3 -7.4C2.55 -7.84 1.95 -8.06 1.22 -8.06C0.29 -8.06 -0.77 -7.71 -1.96 -7L-1.96 -7.86L-4.46 -7.86L-4.46 -7.22L-2.82 -7.22L-2.82 -0.64L-4.48 -0.64L-4.48 0L-0.36 0L-0.36 -0.64L-1.96 -0.64L-1.96 -6.36C-0.73 -7.04 0.26 -7.38 1.02 -7.38C1.57 -7.38 2 -7.22 2.32 -6.9C2.64 -6.58 2.8 -6.15 2.8 -5.6L2.8 -0.64L1.24 -0.64L1.24 0L5.16 0Z M20.52 -0.64L19.02 -0.64L19.02 -5.58C19.02 -6.35 18.8 -6.96 18.35 -7.4C17.9 -7.84 17.31 -8.06 16.56 -8.06C16.04 -8.06 15.53 -7.97 15.04 -7.78C14.55 -7.59 13.99 -7.31 13.38 -6.94L13.38 -11.46L11.1 -11.46L11.1 -10.82L12.5 -10.82L12.5 -0.64L11.06 -0.64L11.06 0L14.76 0L14.76 -0.64L13.38 -0.64L13.38 -6.34C14.55 -7.03 15.56 -7.38 16.4 -7.38C16.95 -7.38 17.38 -7.22 17.69 -6.9C18 -6.58 18.16 -6.15 18.16 -5.6L18.16 -0.64L16.6 -0.64L16.6 0L20.52 0Z M29.2 -3.72L29.2 -3.94C29.2 -5.26 28.84 -6.28 28.13 -7C27.42 -7.72 26.49 -8.08 25.36 -8.08C24.64 -8.08 23.97 -7.92 23.35 -7.59C22.73 -7.26 22.23 -6.79 21.86 -6.16C21.49 -5.53 21.3 -4.79 21.3 -3.94C21.3 -3.11 21.49 -2.38 21.88 -1.75C22.27 -1.12 22.78 -0.63 23.43 -0.29C24.08 0.05 24.78 0.22 25.54 0.22C26.21 0.22 26.84 0.09 27.44 -0.17C28.04 -0.43 28.57 -0.79 29.02 -1.26L28.72 -1.86C28.36 -1.45 27.89 -1.11 27.31 -0.85C26.73 -0.59 26.14 -0.46 25.54 -0.46C24.62 -0.46 23.85 -0.76 23.23 -1.36C22.61 -1.96 22.27 -2.75 22.2 -3.72ZM28.36 -4.32L22.2 -4.32C22.27 -5.27 22.6 -6.02 23.19 -6.59C23.78 -7.16 24.51 -7.44 25.36 -7.44C26.2 -7.44 26.91 -7.17 27.49 -6.62C28.07 -6.07 28.36 -5.31 28.36 -4.32Z M37.16 -7.62C36.67 -7.89 36.17 -8.02 35.66 -8.02C35.23 -8.02 34.84 -7.88 34.49 -7.61C34.14 -7.34 33.85 -6.9 33.64 -6.3L33.64 -7.86L31.14 -7.86L31.14 -7.22L32.78 -7.22L32.78 -0.64L31.1 -0.64L31.1 0L35.22 0L35.22 -0.64L33.64 -0.64L33.66 -4.42C33.66 -5.29 33.85 -5.98 34.24 -6.5C34.63 -7.02 35.09 -7.28 35.64 -7.28C36.07 -7.28 36.51 -7.15 36.96 -6.88Z M46.02 -3.72L46.02 -3.94C46.02 -5.26 45.66 -6.28 44.95 -7C44.24 -7.72 43.31 -8.08 42.18 -8.08C41.46 -8.08 40.79 -7.92 40.17 -7.59C39.55 -7.26 39.05 -6.79 38.68 -6.16C38.31 -5.53 38.12 -4.79 38.12 -3.94C38.12 -3.11 38.31 -2.38 38.7 -1.75C39.09 -1.12 39.6 -0.63 40.25 -0.29C40.9 0.05 41.6 0.22 42.36 0.22C43.03 0.22 43.66 0.09 44.26 -0.17C44.86 -0.43 45.39 -0.79 45.84 -1.26L45.54 -1.86C45.18 -1.45 44.71 -1.11 44.13 -0.85C43.55 -0.59 42.96 -0.46 42.36 -0.46C41.44 -0.46 40.67 -0.76 40.05 -1.36C39.43 -1.96 39.09 -2.75 39.02 -3.72ZM45.18 -4.32L39.02 -4.32C39.09 -5.27 39.42 -6.02 40.01 -6.59C40.6 -7.16 41.33 -7.44 42.18 -7.44C43.02 -7.44 43.73 -7.17 44.31 -6.62C44.89 -6.07 45.18 -5.31 45.18 -4.32Z"/></g></g></svg>